<svg width="184px" height="123px" viewBox="0 0 184 123" version="1.1" xmlns="http://www.w3.org/2000/svg" xmlns:xlink="http://www.w3.org/1999/xlink"><g stroke="none" stroke-width="1" fill="none" fill-rule="evenodd"><g transform="translate(-807.000000, -357.000000)" fill="#000000" fill-rule="nonzero"><path d="M807,357 L991,357 L991,480 L807,480 L807,357 Z M871.035686,381.177506 L870.594117,381.177506 C850.786615,381.437606 834.827067,398.08401 834.827067,418.566889 C834.827067,439.114793 850.975859,455.891247 871.035686,455.891247 C891.095513,455.891247 907.244305,439.114793 907.244305,418.566889 C907.244305,397.888935 891.032432,381.177506 871.035686,381.177506 Z M871.035686,442.691169 C867.755463,442.691169 864.727564,442.040919 861.888909,440.805444 C853.499108,437.164043 847.569473,428.580741 847.569473,418.566889 C847.569473,405.171736 858.104036,394.377584 871.035686,394.377584 C884.030417,394.377584 894.501899,405.236761 894.501899,418.566889 C894.438818,431.897017 883.967335,442.691169 871.035686,442.691169 Z M956.656168,394.429804 C952.588195,385.560156 945.774341,381.177506 936.112906,381.177506 C930.519443,381.177506 925.942974,383.055785 922.180099,386.91669 C918.518924,390.777596 916.688336,395.473292 916.688336,401.003778 C916.484937,414.464773 927.468464,419.99526 935.909507,423.647468 C941.909767,426.256188 946.486236,429.595349 946.486236,433.87365 C946.486236,440.238927 943.435257,443.369391 937.231598,443.369391 C930.519443,443.369391 925.841274,438.464997 923.095393,428.551861 L912.416964,435.438882 C913.535657,441.178066 916.383238,446.08246 920.858008,450.047714 C925.332778,453.90862 930.722842,455.891247 936.9265,455.891247 C950.757607,455.891247 959.707147,447.334645 959.707147,433.143208 C959.808847,420.517004 948.520222,415.090866 939.97748,411.229961 C934.180619,408.412543 929.299051,404.969033 929.299051,400.377685 C929.299051,396.51678 932.146632,393.699362 936.112906,393.699362 C940.079179,393.699362 943.435257,396.308082 945.977739,401.421173 L956.656168,394.429804 Z"></path></g></g></svg>