<?xml version="1.0" encoding="UTF-8" standalone="no"?>
<!DOCTYPE svg PUBLIC "-//W3C//DTD SVG 1.1//EN" "http://www.w3.org/Graphics/SVG/1.1/DTD/svg11.dtd">
<svg width="100%" height="100%" viewBox="0 0 2500 2397" version="1.1" xmlns="http://www.w3.org/2000/svg" xmlns:xlink="http://www.w3.org/1999/xlink" xml:space="preserve" xmlns:serif="http://www.serif.com/" style="fill-rule:evenodd;clip-rule:evenodd;stroke-linejoin:round;stroke-miterlimit:2;">
    <path d="M2156.35,149.813L868.562,149.813C810.868,149.813 763.394,197.287 763.394,254.981L763.394,374.531L1489.24,599.25L2261.52,374.531L2261.52,254.981C2261.52,197.287 2214.04,149.813 2156.35,149.813Z" style="fill:white;fill-rule:nonzero;"/>
    <path d="M2385.11,1303.74C2396.09,1269.26 2404.84,1234.1 2411.33,1198.5C2411.31,1180.72 2401.79,1164.24 2386.39,1155.35L2385.41,1154.76L2385.11,1154.61L1573.28,692.134C1569.78,689.861 1566.15,687.785 1562.42,685.917C1530.97,670.302 1493.95,670.302 1462.49,685.917C1458.76,687.76 1455.13,689.81 1451.63,692.059L639.798,1154.68L639.499,1154.83L638.6,1155.35C623.173,1164.23 613.617,1180.7 613.581,1198.5C620.07,1234.1 628.827,1269.26 639.798,1303.74L1500.62,1933.33L2385.11,1303.74Z" style="fill:white;fill-rule:nonzero;"/>
    <path d="M1812.08,374.531L1287.74,374.531L1136.35,599.25L1287.74,823.969L1812.08,1273.41L2261.52,1273.41L2261.52,823.969L1812.08,374.531Z" style="fill:white;fill-rule:nonzero;"/>
    <rect x="763.394" y="374.531" width="524.344" height="449.438" style="fill:white;fill-rule:nonzero;"/>
    <rect x="1812.08" y="374.531" width="449.438" height="449.438" style="fill:white;fill-rule:nonzero;"/>
    <path d="M1812.08,1273.41L1287.74,823.969L763.394,823.969L763.394,1273.41L1287.74,1722.84L2099.12,1855.28L1812.08,1273.41Z" style="fill:white;fill-rule:nonzero;"/>
    <path d="M765.716,374.531L2261.52,374.531" style="fill:none;fill-rule:nonzero;"/>
    <rect x="1287.74" y="823.969" width="524.344" height="449.438" style="fill:white;fill-rule:nonzero;"/>
    <rect x="763.394" y="1273.41" width="524.344" height="449.438" style="fill:white;fill-rule:nonzero;"/>
    <rect x="1812.08" y="1273.41" width="449.438" height="449.438" style="fill:white;fill-rule:nonzero;"/>
    <path d="M1526.69,1888.99L643.319,1244.79L680.398,1179.62C680.398,1179.62 1485.27,1638.05 1497.55,1644.94C1507.7,1649.01 1519.1,1648.68 1529.01,1644.04L2347.96,1177.38L2385.11,1242.47L1526.69,1888.99Z" style="fill:rgb(10,39,103);fill-opacity:0.5;fill-rule:nonzero;"/>
    <path d="M2386.39,1241.72L2385.34,1242.32L2385.11,1242.47L1573.28,1704.94C1540.53,1726.06 1499.04,1728.64 1463.92,1711.76L1746.61,2090.86L2364.89,2225.47L2364.89,2225.76C2394.04,2204.68 2411.34,2170.81 2411.33,2134.83L2411.33,1198.5C2411.34,1216.31 2401.81,1232.82 2386.39,1241.72Z" style="fill:white;fill-rule:nonzero;"/>
    <path d="M2411.33,2134.83L2411.33,2079.55L1663.54,1653.48L1573.28,1704.94C1540.53,1726.06 1499.04,1728.64 1463.92,1711.76L1746.61,2090.86L2364.89,2225.47L2364.89,2225.76C2394.04,2204.68 2411.34,2170.81 2411.33,2134.83Z" style="fill-opacity:0.05;fill-rule:nonzero;"/>
    <path d="M2407.59,2163.52L1587.89,1696.63L1573.28,1704.87C1540.54,1726.01 1499.05,1728.62 1463.92,1711.76L1746.61,2090.86L2364.89,2225.47L2364.89,2225.76C2385.85,2210.58 2400.94,2188.61 2407.59,2163.59L2407.59,2163.52Z" style="fill-opacity:0.1;fill-rule:nonzero;"/>
    <path d="M639.798,1242.69L639.798,1241.95L639.049,1241.95L636.802,1240.45C622.253,1231.52 613.424,1215.57 613.581,1198.5L613.581,2134.83C613.581,2134.88 613.581,2134.93 613.581,2134.98C613.581,2196.53 664.234,2247.19 725.791,2247.19C725.841,2247.19 725.891,2247.19 725.941,2247.19L2298.97,2247.19C2308.33,2247.1 2317.64,2245.84 2326.69,2243.44C2331.38,2242.63 2335.93,2241.11 2340.17,2238.95C2341.76,2238.79 2343.3,2238.28 2344.66,2237.45C2350.8,2234.94 2356.58,2231.67 2361.89,2227.71C2363.39,2226.96 2364.14,2226.96 2364.89,2225.47L639.798,1242.69Z" style="fill:white;fill-rule:nonzero;"/>
    <path d="M1362.64,1847.71L1362.64,624.194C1362.48,569.48 1317.51,524.507 1262.79,524.344L765.641,524.344L765.641,1082.85L639.798,1154.61L639.424,1154.76L638.525,1155.28C623.104,1164.18 613.575,1180.69 613.581,1198.5L613.581,1198.88L613.581,1198.5L613.581,1947.56L1262.79,1947.56C1317.51,1947.4 1362.48,1902.43 1362.64,1847.71Z" style="fill-opacity:0.1;fill-rule:nonzero;"/>
    <path d="M1287.74,1922.62L1287.74,699.1C1287.57,644.386 1242.6,599.413 1187.89,599.25L765.641,599.25L765.641,1082.85L639.798,1154.61L639.424,1154.76L638.525,1155.28C623.104,1164.18 613.575,1180.69 613.581,1198.5L613.581,1198.88L613.581,1198.5L613.581,2022.47L1187.89,2022.47C1242.6,2022.31 1287.57,1977.33 1287.74,1922.62Z" style="fill-opacity:0.2;fill-rule:nonzero;"/>
    <path d="M1287.74,1772.81L1287.74,699.1C1287.57,644.386 1242.6,599.413 1187.89,599.25L765.641,599.25L765.641,1082.85L639.798,1154.61L639.424,1154.76L638.525,1155.28C623.104,1164.18 613.575,1180.69 613.581,1198.5L613.581,1198.88L613.581,1198.5L613.581,1872.66L1187.89,1872.66C1242.6,1872.49 1287.57,1827.52 1287.74,1772.81Z" style="fill-opacity:0.2;fill-rule:nonzero;"/>
    <path d="M1212.83,1772.81L1212.83,699.1C1212.67,644.386 1167.69,599.413 1112.98,599.25L765.641,599.25L765.641,1082.85L639.798,1154.61L639.424,1154.76L638.525,1155.28C623.104,1164.18 613.575,1180.69 613.581,1198.5L613.581,1198.88L613.581,1198.5L613.581,1872.66L1112.98,1872.66C1167.69,1872.49 1212.67,1827.52 1212.83,1772.81Z" style="fill-opacity:0.2;fill-rule:nonzero;"/>
    <path d="M114.181,599.25L1112.98,599.25C1167.76,599.25 1212.83,644.324 1212.83,699.1L1212.83,1697.9C1212.83,1752.68 1167.76,1797.75 1112.98,1797.75L114.181,1797.75C59.405,1797.75 14.331,1752.68 14.331,1697.9L14.331,699.1C14.331,644.324 59.405,599.25 114.181,599.25Z" style="fill:white;fill-rule:nonzero;"/>
    <path d="M303.994,1008.84C330.522,952.299 373.365,904.968 426.99,872.957C486.401,838.947 554.066,821.992 622.495,823.969C685.856,822.594 748.393,838.663 803.244,870.411C854.875,901.164 896.469,946.273 922.944,1000.22C951.787,1059.69 966.162,1125.15 964.891,1191.23C966.278,1260.26 951.475,1328.66 921.671,1390.93C894.62,1446.8 851.771,1493.54 798.45,1525.32C741.448,1558.08 676.537,1574.58 610.81,1573.03C546.057,1574.57 482.106,1558.33 425.941,1526.07C373.898,1495.26 331.813,1450.11 304.743,1396.03C275.702,1337.44 261.136,1272.72 262.271,1207.34C261.015,1138.87 275.28,1071 303.994,1008.84ZM435.08,1327.79C449.212,1363.53 473.189,1394.55 504.218,1417.23C535.835,1439.36 573.728,1450.78 612.308,1449.81C653.406,1451.41 693.931,1439.6 727.738,1416.18C758.422,1393.51 781.788,1362.33 794.929,1326.52C809.665,1286.61 816.927,1244.33 816.352,1201.8C816.809,1158.86 809.97,1116.15 796.128,1075.5C783.914,1038.94 761.382,1006.68 731.259,982.62C698.344,958.02 657.934,945.503 616.877,947.19C577.457,946.193 538.717,957.708 506.241,980.073C474.602,1002.79 450.072,1034.05 435.529,1070.19C403.363,1153.01 403.176,1244.91 435.005,1327.86L435.08,1327.79Z" style="fill:rgb(52,126,182);fill-rule:nonzero;"/>
    <rect x="14.331" y="0" width="2397" height="2397" style="fill:none;fill-rule:nonzero;"/>
</svg>
