<?xml version="1.0" encoding="UTF-8" standalone="no"?>
<!DOCTYPE svg PUBLIC "-//W3C//DTD SVG 1.1//EN" "http://www.w3.org/Graphics/SVG/1.1/DTD/svg11.dtd">
<svg width="100%" height="100%" viewBox="0 0 250 250" version="1.1" xmlns="http://www.w3.org/2000/svg" xmlns:xlink="http://www.w3.org/1999/xlink" xml:space="preserve" xmlns:serif="http://www.serif.com/" style="fill-rule:evenodd;clip-rule:evenodd;stroke-linejoin:round;stroke-miterlimit:2;">
    <g transform="matrix(1.27843,0,0,1.14557,22.4641,82.8693)">
        <g>
            <path d="M101.652,2.068L96.116,6.782L62.979,21.567L56.262,20.915L45.536,23.592L33.641,31.675L21.987,37.711L10.015,40.062L1.99,38.526L0,39.507L9.113,42.462L21.625,40.444L34.891,35.135L52.369,25.811L57.039,26.017L51.527,32.367L48.574,40.596L44.645,45.701L38.802,47.555L33.426,63.728L32.281,65.32L33.164,73.554L37.293,73.222L43.618,58.126L50.077,52.582L60.208,47.393L67.417,43.062L71.591,36.451L83.189,36.016L94.883,32.851L99.568,34.014L110.323,30.589L117.338,26.672L120.873,31.419L125.807,31.35L136.908,33.218L143.595,34.489L154.965,36.648L160.409,34.935L157.3,32.114L144.428,27.249L132.75,22.228L132.159,18.146L132.534,16.23L134.663,15.792L135.63,18.233L140.705,18.571L144.316,19.339L145.396,20.142L148.59,19.688L148.974,18.592L150.441,18.571L151.22,17.06L152.673,16.084L151.715,14.325L150.086,12.166L150.173,8.891L146.785,5.119L145.584,4.999L140.181,0.163L139.411,2.358L132.439,0L126.169,0.088L122.062,2.055L111.378,1.25L101.652,2.068Z" style="fill:white;fill-rule:nonzero;"/>
            <path d="M144.316,19.339L148.59,19.688L148.974,18.592L150.441,18.571L151.22,17.06L152.673,16.084L151.715,14.325L150.086,12.166L150.173,8.891L144.316,19.339Z" style="fill:white;fill-rule:nonzero;"/>
            <path d="M132.75,22.228L122.062,2.055L111.378,1.25L101.652,2.068L96.116,6.782L62.979,21.567L117.338,26.672L132.75,22.228Z" style="fill:white;fill-rule:nonzero;"/>
            <g>
                <path d="M157.3,32.114L144.428,27.249L132.75,22.228L132.159,18.146L132.534,16.23L139.411,2.358L122.649,1.774L96.116,6.782L117.338,26.672L120.873,31.419L125.807,31.35L136.908,33.218L143.595,34.489L154.965,36.648L160.409,34.935L157.3,32.114Z" style="fill:white;fill-rule:nonzero;"/>
                <path d="M71.591,36.451L51.527,32.367L48.574,40.596L44.645,45.701L38.802,47.555L33.426,63.728L37.293,73.222L43.618,58.126L71.591,36.451Z" style="fill:white;fill-rule:nonzero;"/>
            </g>
            <path d="M132.534,16.23L122.062,2.055L116.988,1.672L117.338,26.672L120.873,31.419L132.534,16.23Z" style="fill:white;fill-rule:nonzero;"/>
            <path d="M52.369,25.811L45.536,23.592L34.891,35.135L52.369,25.811Z" style="fill:white;fill-rule:nonzero;"/>
            <path d="M33.641,31.675L21.987,37.711L10.015,40.062L21.625,40.444L33.641,31.675Z" style="fill:white;fill-rule:nonzero;"/>
            <path d="M10.015,40.062L1.99,38.526L9.113,42.462L10.015,40.062Z" style="fill:white;fill-rule:nonzero;"/>
            <path d="M62.979,21.567L71.591,36.451L94.883,32.851L62.979,21.567Z" style="fill:white;fill-rule:nonzero;"/>
            <path d="M43.618,58.126L38.802,47.555L37.293,73.222L43.618,58.126Z" style="fill:white;fill-rule:nonzero;"/>
            <path d="M117.338,26.672L120.873,31.419L125.807,31.35L136.908,33.218L143.595,34.489L154.965,36.648L160.409,34.935L117.338,26.672Z" style="fill:white;fill-rule:nonzero;"/>
            <path d="M148.974,18.592L140.183,0.162L150.086,12.166L148.974,18.592Z" style="fill:white;fill-rule:nonzero;"/>
            <path d="M71.591,36.451L117.338,26.672L96.116,6.782L71.591,36.451Z" style="fill:white;fill-rule:nonzero;"/>
        </g>
    </g>
</svg>
