<?xml version="1.0" encoding="UTF-8" standalone="no"?>
<!DOCTYPE svg PUBLIC "-//W3C//DTD SVG 1.1//EN" "http://www.w3.org/Graphics/SVG/1.1/DTD/svg11.dtd">
<svg aria-label="bitbucket icon" width="100%" height="100%" viewBox="0 0 2500 2256" version="1.1" xmlns="http://www.w3.org/2000/svg" xmlns:xlink="http://www.w3.org/1999/xlink" xml:space="preserve" xmlns:serif="http://www.serif.com/" style="fill-rule:evenodd;clip-rule:evenodd;stroke-linejoin:round;stroke-miterlimit:2;">
    <g>
        <path d="M89.89,14.98C89.547,14.975 89.205,14.973 88.862,14.973C45.251,14.973 9.365,50.86 9.365,94.471C9.365,98.739 9.708,103 10.392,107.213L347.874,2155.93C356.516,2207.47 401.35,2245.74 453.609,2246.17L2072.64,2246.17C2111.84,2246.67 2145.85,2218.1 2152.12,2179.39L2489.61,107.61C2490.3,103.404 2490.64,99.149 2490.64,94.887C2490.64,51.276 2454.75,15.39 2411.14,15.39C2410.8,15.39 2410.45,15.392 2410.11,15.397L89.89,14.98ZM1510.96,1495.67L994.205,1495.67L854.285,764.671L1636.17,764.671L1510.96,1495.67Z" style="fill:white;fill-rule:nonzero;"/>
        <path d="M2380.23,763.644L1634.73,763.644L1509.61,1494.07L993.274,1494.07L383.6,2217.73C402.919,2234.44 427.567,2243.73 453.105,2243.94L2071.24,2243.94C2110.42,2244.45 2144.41,2215.89 2150.68,2177.22L2380.23,763.644Z" style="fill:white;fill-rule:nonzero;"/>
    </g>
</svg>
