<?xml version="1.0" encoding="UTF-8" standalone="no"?>
<!DOCTYPE svg PUBLIC "-//W3C//DTD SVG 1.1//EN" "http://www.w3.org/Graphics/SVG/1.1/DTD/svg11.dtd">
<svg aria-label="confluence icon" width="100%" height="100%" viewBox="0 0 2500 2400" version="1.1" xmlns="http://www.w3.org/2000/svg" xmlns:xlink="http://www.w3.org/1999/xlink" xml:space="preserve" xmlns:serif="http://www.serif.com/" style="fill-rule:evenodd;clip-rule:evenodd;stroke-linejoin:round;stroke-miterlimit:2;">
    <path d="M89.68,1832.15C63.917,1874.12 34.74,1923.3 11.71,1962.24C6.635,1970.92 3.415,1980.58 1.951,1990.53C0.562,2000.53 1.092,2010.7 3.513,2020.49C5.855,2030.35 10.148,2039.52 16.003,2047.72C21.858,2055.92 29.275,2062.94 37.765,2068.41L555.257,2387.41C564.137,2392.97 574.188,2396.68 584.63,2398.34C594.974,2400 605.708,2399.61 615.955,2397.07C626.201,2394.53 635.862,2390.05 644.352,2383.8C652.842,2377.56 659.965,2369.65 665.332,2360.58C686.216,2325.84 712.661,2280.85 741.058,2232.84C946.181,1896.46 1154.04,1937.64 1525.35,2114.17L2038.64,2357.55C2058.05,2366.86 2080.43,2367.88 2100.61,2360.38C2110.56,2356.67 2119.74,2351.01 2127.45,2343.69C2135.25,2336.38 2141.4,2327.59 2145.69,2317.83L2392.1,1762.28C2396.29,1752.91 2398.63,1742.86 2398.93,1732.62C2399.32,1722.47 2397.66,1712.22 2394.14,1702.66C2390.63,1693.1 2385.36,1684.22 2378.53,1676.6C2371.7,1668.99 2363.5,1662.85 2354.23,1658.26C2246.01,1607.32 2030.64,1507.1 1837.62,1412.64C1135.5,1073.92 543.059,1096.27 89.68,1832.15Z" style="fill:white;fill-rule:nonzero;"/>
    <path d="M2409.95,569.31C2436.01,527.348 2465.19,478.263 2487.92,439.327C2493.1,430.446 2496.51,420.59 2497.97,410.344C2499.44,400.195 2498.85,389.754 2496.32,379.8C2493.72,369.822 2489.22,360.442 2483.04,352.183C2476.88,343.9 2469.16,336.904 2460.31,331.593L1943.6,12.588C1934.62,7.026 1924.66,3.318 1914.22,1.659C1903.78,0 1893.14,0.488 1882.9,2.928C1872.65,5.465 1862.99,9.954 1854.5,16.199C1846.01,22.444 1838.89,30.349 1833.42,39.424C1813.03,74.164 1786.09,119.151 1757.7,167.163C1551.79,505.099 1345.89,463.918 974.188,287.387L461.38,43.913C451.817,39.327 441.473,36.594 430.934,36.009C420.395,35.326 409.758,36.887 399.804,40.4C389.851,43.913 380.678,49.378 372.871,56.502C364.967,63.625 358.721,72.213 354.232,81.776L107.831,638.888C99.365,657.777 98.56,679.236 105.586,698.707C109.099,708.368 114.466,717.248 121.297,724.86C128.128,732.471 136.423,738.717 145.694,743.206C254.305,794.242 469.675,894.364 662.307,988.924C1362.58,1327.54 1956.87,1305.29 2409.95,569.31Z" style="fill:white;fill-rule:nonzero;"/>
</svg>
