<svg viewBox="0 0 272.352 239.964" xmlns="http://www.w3.org/2000/svg" height="100%"><defs></defs><g transform="translate(-346.287 -306.968)"><path d="M582.889 465.238l-9.76 5.774-11.37-12.17-.07-.074-6.742 3.88-12.912 7.432-11.5 6.621-.924-.743 12.427-8.044 12.912-8.357.012-.007-.012-.014V358.014l.008-1.472-13.7 4.827v-54.4H346.292v123.088h-.005l.005.415v.173l.01.889 13.676-4.819v70.838h194.969v-.006l60.487.006zM359.2 319.88h169.146v46.037L359.2 425.508zm162.66 131.776l-.469.477-16.851-10.312-32.994 20.2-1.153-.706 17.12-12.366-28.323-41.878-33.2 49.038 7.969 9.257-.822 1.338-15.3-14.277-26.757 32.215h-18.188v-62.476l169.143-59.6v81.861l-13.641-15.963-15.024 15.465zM547.057 512.274h4.976v14.975a16.059 16.059 0 002.986.181c5.926 0 9.953-3.755 9.953-10.089 0-1.583-.045-3.529-.136-5.067h4.977c.09 1.629.135 3.393.135 4.886 0 6.786-3.166 11.582-8.731 13.663l10.27 15.382h-6.063l-9.41-14.342c-.5.046-.995.046-1.493.046a23.068 23.068 0 01-2.488-.136v14.432h-4.976zM430.3 512.278h19.454v4.343H435.28v10.27h13.572v4.3H435.28v10.629h14.7v4.388H430.3zM466.011 512.278h6.424l11.31 33.93h-5.338l-2.669-8.55h-13.165l-2.715 8.55H454.7zm-2.036 20.992h10.36l-5.067-16.106h-.181zM492.289 516.621h-9.048v-4.343h23.073v4.343h-9.048v29.587h-4.977zM578.925 512.278h4.975v33.93h-4.976zM386.472 540.616a13.444 13.444 0 01-6.543 1.644 12.414 12.414 0 01-9.026-3.852 12.826 12.826 0 010-18.329 12.411 12.411 0 019.026-3.853 12.148 12.148 0 016.157 1.614 32.119 32.119 0 014.133 3.16c-.012-.023 3.355-3.308 3.355-3.308l-.336-.379a17.271 17.271 0 00-13.033-5.758 17.62 17.62 0 00-12.858 5.2 16.925 16.925 0 00-5.247 12.385 17.38 17.38 0 005.158 12.467 16.741 16.741 0 0012.392 5.325h.623a16.911 16.911 0 0012.977-5.773l.354-.391s-3.225-3.134-3.214-3.148a17.007 17.007 0 01-3.918 2.996zM600.905 512.278h6.424l11.31 33.93H613.3l-2.67-8.55h-13.164l-2.714 8.55h-5.157zm-2.036 20.992h10.36l-5.067-16.106h-.181zM538.787 520.158l-3.752 3.71a15.411 15.411 0 01.912 5.33c0 7.736-4.977 13.21-12.17 13.21s-12.17-5.474-12.17-13.21c0-7.646 4.977-13.21 12.17-13.21a11.881 11.881 0 017.006 2.16l3.352-3.328a17.3 17.3 0 00-10.358-3.266c-10 0-17.282 7.465-17.282 17.689s7.148 17.689 17.282 17.689c10 0 17.237-7.464 17.237-17.689a18.823 18.823 0 00-2.227-9.085zM415.064 532.274c4.931-1.131 8.189-4.976 8.189-9.862 0-5.746-4.66-10.179-11.175-10.179h-12.532v33.93h4.977v-29.587h7.057c4.117 0 6.605 2.624 6.605 5.881 0 3.167-2.488 5.926-6.605 5.926h-4.359l2.459 4.208 8.189 13.572h5.745z"></path><circle cx="7.908" cy="7.908" r="7.908" transform="translate(495.753 399.174)"></circle></g></svg>