<?xml version="1.0" encoding="UTF-8" standalone="no"?>
<!DOCTYPE svg PUBLIC "-//W3C//DTD SVG 1.1//EN" "http://www.w3.org/Graphics/SVG/1.1/DTD/svg11.dtd">
<svg aria-label="cypress icon" width="100%" height="100%" viewBox="0 0 24 24" version="1.1" xmlns="http://www.w3.org/2000/svg" xmlns:xlink="http://www.w3.org/1999/xlink" xml:space="preserve" xmlns:serif="http://www.serif.com/" style="fill-rule:evenodd;clip-rule:evenodd;stroke-linejoin:round;stroke-miterlimit:2;">
    <path d="M11.998,0C5.366,0 0,5.367 0,12C-0,12.003 -0,12.005 -0,12.008C-0,18.587 5.413,24 11.992,24C11.995,24 11.997,24 12,24C18.633,24 24,18.633 24,12C23.999,5.367 18.588,0 11.998,0ZM6.37,14.575C6.762,15.098 7.286,15.317 8.027,15.317C8.377,15.317 8.726,15.273 9.031,15.142C9.337,15.012 9.686,14.836 10.121,14.575L11.344,16.32C10.341,17.15 9.206,17.542 7.897,17.542C6.849,17.542 5.977,17.324 5.192,16.888C4.43,16.438 3.821,15.769 3.446,14.968C3.054,14.138 2.835,13.178 2.835,12.043C2.835,10.953 3.054,9.949 3.445,9.12C3.818,8.294 4.426,7.596 5.193,7.113C5.934,6.633 6.85,6.415 7.854,6.415C8.553,6.415 9.207,6.502 9.731,6.72C10.319,6.948 10.864,7.272 11.345,7.68L10.123,9.338C9.813,9.109 9.476,8.918 9.12,8.77C8.815,8.64 8.422,8.596 8.072,8.596C6.589,8.596 5.847,9.73 5.847,12.042C5.804,13.222 6.022,14.05 6.371,14.574L6.37,14.574L6.37,14.575ZM18.37,17.28C17.934,18.633 17.279,19.637 16.362,20.378C15.446,21.121 14.224,21.513 12.697,21.644L12.392,19.594C13.395,19.462 14.137,19.244 14.617,18.894C14.791,18.764 15.141,18.371 15.141,18.371L11.519,6.764L14.529,6.764L16.624,15.447L18.85,6.764L21.773,6.764L18.37,17.28Z" style="fill:white;fill-rule:nonzero;"/>
</svg>
