<?xml version="1.0" encoding="UTF-8" standalone="no"?>
<!DOCTYPE svg PUBLIC "-//W3C//DTD SVG 1.1//EN" "http://www.w3.org/Graphics/SVG/1.1/DTD/svg11.dtd">
<svg aria-label="elixir icon" width="100%" height="100%" viewBox="0 0 2500 2500" version="1.1" xmlns="http://www.w3.org/2000/svg" xmlns:xlink="http://www.w3.org/1999/xlink" xml:space="preserve" xmlns:serif="http://www.serif.com/" style="fill-rule:evenodd;clip-rule:evenodd;stroke-linejoin:round;stroke-miterlimit:2;">
    <g transform="matrix(1.83791,0,0,1.83791,-801.055,-1326.63)">
        <path d="M1142.86,921.086C1072.64,945.974 1004.84,1018.63 939.494,1139.03C841.479,1319.65 714.861,1576.3 889.203,1779.52C969.849,1873.52 1103.02,1929 1277.79,1841.14C1418.19,1770.53 1457.25,1567.93 1406.84,1472.75C1302.86,1276.37 1197.37,1227.94 1169.12,1106.15C1150.29,1024.96 1141.53,963.282 1142.85,921.086L1142.86,921.086Z" style="fill:white;"/>
        <path d="M1142.86,918.654C1072.27,943.8 1004.49,1016.46 939.494,1136.6C842.008,1316.83 714.861,1573.87 889.203,1777.09C969.849,1871.09 1101.32,1901.46 1174.26,1845.71C1221.82,1809.36 1254.15,1774.72 1272.79,1701.71C1293.54,1620.43 1277.62,1510.98 1266.7,1460.72C1252.9,1397.1 1248.38,1327.28 1253.15,1251.25C1251.89,1249.73 1250.64,1248.19 1249.38,1246.66C1211.41,1200.18 1182.11,1159.7 1169.12,1103.72C1150.29,1022.53 1141.53,960.85 1142.85,918.654L1142.86,918.654Z" style="fill:white;"/>
        <path d="M1084.42,950.279C1018.68,1002.23 969.789,1089.37 937.772,1211.7C889.746,1395.21 884.551,1564.43 901.496,1662.87C934.329,1853.67 1104.56,1926.1 1279.16,1837.3C1386.61,1782.63 1431.38,1665.32 1429.01,1537.97C1426.55,1406.1 1171.74,1256.66 1126.61,1146.62C1096.53,1073.26 1082.47,1007.8 1084.42,950.279Z" style="fill:white;"/>
        <path d="M1251.09,1294.31C1329.92,1395.42 1347.11,1465.81 1302.63,1505.47C1235.94,1564.96 1072.82,1603.77 971.345,1531.81C903.686,1483.83 878.087,1380.92 894.549,1223.06C866.984,1280.48 843.32,1339.69 823.719,1400.3C804.418,1460.13 798.77,1522.75 806.804,1588.14C830.998,1637.07 889.792,1669.74 983.2,1686.17C1123.35,1710.82 1255.95,1698.63 1344.95,1653.78C1404.28,1623.87 1432.34,1594.09 1429.14,1564.46C1431.27,1520.69 1417.79,1479.04 1388.65,1439.48C1359.51,1399.91 1313.65,1351.53 1251.07,1294.3L1251.09,1294.31Z" style="fill:white;"/>
        <path d="M942.997,1193.35C942.333,1266.37 961.105,1335.78 999.314,1401.61C1056.63,1500.32 1123.53,1597.85 1223.64,1678.71C1290.4,1732.63 1343.72,1750.03 1383.64,1730.97C1350.87,1789.64 1315.98,1818.39 1279.06,1817.22C1223.64,1815.46 1156.09,1791.24 1047.84,1661.16C975.679,1574.44 926.309,1492.41 899.744,1415.07C903.958,1384.38 908.428,1353.83 913.14,1323.4C917.867,1292.95 927.819,1249.61 942.982,1193.35L942.997,1193.35Z" style="fill:white;"/>
        <path d="M1112.31,1293.56C1118.44,1353.06 1141.58,1448.2 1112.31,1511.56C1083.04,1574.91 947.845,1689.36 985.148,1790.2C1022.48,1891.01 1113.43,1868.38 1170.48,1821.91C1227.54,1775.44 1258.08,1699.88 1264.84,1646.76C1271.61,1593.62 1248.65,1491.4 1241.18,1402.46C1236.19,1343.18 1239.58,1292.36 1251.31,1249.97L1233.84,1227.98L1130.93,1197.5C1114.44,1221.89 1108.23,1253.91 1112.31,1293.56Z" style="fill:white;"/>
        <path d="M1149.04,998.923C1115.74,1013 1084.19,1040.88 1054.38,1082.58C1009.67,1145.11 986.9,1182.61 1003.75,1306.59C1014.99,1389.24 1023.04,1465.28 1027.89,1534.71L1172.01,1115.97C1167.21,1096.79 1162.8,1077.52 1158.8,1058.15C1154.88,1038.53 1151.62,1018.77 1149.04,998.923Z" style="fill:white;"/>
        <path d="M1171.74,1115.14C1135.14,1136.49 1106.8,1180.23 1086.68,1246.38C1066.58,1312.52 1048.17,1405 1031.48,1523.81C1053.74,1448.23 1068.51,1393.52 1075.78,1359.61C1086.68,1308.78 1090.41,1236.88 1119.38,1188.07C1138.68,1155.52 1156.14,1131.22 1171.74,1115.12L1171.74,1115.14Z" style="fill:white;fill-opacity:0.31;"/>
        <path d="M1002.34,1823.86C1062.53,1832.47 1094.02,1840.11 1096.79,1846.82C1100.92,1856.84 1089.16,1866.03 1055.74,1859.85C1033.46,1855.74 1015.65,1843.74 1002.34,1823.86Z" style="fill:white;"/>
        <path d="M1032.59,998.923C999.465,1038.49 970.771,1080.43 946.501,1124.74C922.232,1169.05 904.864,1202.14 894.458,1223.95C891.226,1240.21 889.656,1264.21 889.731,1295.94C889.807,1327.69 892.555,1362.98 897.962,1401.81C902.579,1326.38 917.216,1251.91 941.487,1180.35C965.772,1108.76 996.127,1048.28 1032.59,998.923Z" style="fill:white;fill-opacity:0.6;"/>
    </g>
</svg>
