<?xml version="1.0" encoding="UTF-8" standalone="no"?>
<!DOCTYPE svg PUBLIC "-//W3C//DTD SVG 1.1//EN" "http://www.w3.org/Graphics/SVG/1.1/DTD/svg11.dtd">
<svg aria-label="excel icon" width="100%" height="100%" viewBox="0 0 2500 2480" version="1.1" xmlns="http://www.w3.org/2000/svg" xmlns:xlink="http://www.w3.org/1999/xlink" xml:space="preserve" xmlns:serif="http://www.serif.com/" style="fill-rule:evenodd;clip-rule:evenodd;stroke-linejoin:round;stroke-miterlimit:2;">
    <g>
        <path d="M1565.03,155L738.337,155C681.664,155 635.03,201.635 635.03,258.308L635.03,697.5L1565.03,1240L2030.03,1436.23L2495.03,1240L2495.03,697.5L1565.03,155Z" style="fill:white;fill-rule:nonzero;"/>
        <rect x="635.03" y="697.5" width="930" height="542.5" style="fill:white;fill-rule:nonzero;"/>
        <path d="M2391.72,155L1565.03,155L1565.03,697.5L2495.03,697.5L2495.03,258.308C2495.03,201.635 2448.39,155 2391.72,155Z" style="fill:white;fill-rule:nonzero;"/>
        <path d="M1565.03,1240L635.03,1240L635.03,2221.69C635.03,2278.37 681.664,2325 738.337,2325L2391.72,2325C2448.39,2325 2495.03,2278.37 2495.03,2221.69L2495.03,1782.5L1565.03,1240Z" style="fill:white;fill-rule:nonzero;"/>
        <rect x="1565.03" y="1240" width="930" height="542.5" style="fill:white;fill-rule:nonzero;"/>
        <path d="M1306.72,542.5L635.03,542.5L635.03,2015L1306.72,2015C1363.33,2014.83 1409.86,1968.3 1410.03,1911.69L1410.03,645.808C1409.86,589.199 1363.33,542.669 1306.72,542.5Z" style="fill-opacity:0.1;fill-rule:nonzero;"/>
        <path d="M1229.22,620L635.03,620L635.03,2092.5L1229.22,2092.5C1285.83,2092.33 1332.36,2045.8 1332.53,1989.19L1332.53,723.308C1332.36,666.699 1285.83,620.169 1229.22,620Z" style="fill-opacity:0.2;fill-rule:nonzero;"/>
        <path d="M1229.22,620L635.03,620L635.03,1937.5L1229.22,1937.5C1285.83,1937.33 1332.36,1890.8 1332.53,1834.19L1332.53,723.308C1332.36,666.699 1285.83,620.169 1229.22,620Z" style="fill-opacity:0.2;fill-rule:nonzero;"/>
        <path d="M1151.72,620L635.03,620L635.03,1937.5L1151.72,1937.5C1208.33,1937.33 1254.86,1890.8 1255.03,1834.19L1255.03,723.308C1254.86,666.699 1208.33,620.169 1151.72,620Z" style="fill-opacity:0.2;fill-rule:nonzero;"/>
        <path d="M118.337,620L1151.72,620C1208.39,620 1255.03,666.635 1255.03,723.307L1255.03,1756.69C1255.03,1813.37 1208.39,1860 1151.72,1860L118.337,1860C61.664,1860 15.03,1813.37 15.03,1756.69L15.03,723.308C15.03,666.635 61.664,620 118.337,620Z" style="fill:white;fill-rule:nonzero;"/>
        <path d="M288.837,1627.5L539.627,1238.91L309.917,852.5L494.755,852.5L620.15,1099.49C631.671,1122.9 639.602,1140.36 643.942,1151.88L645.57,1151.88C653.836,1133.18 662.49,1114.99 671.532,1097.32L805.53,852.5L975.177,852.5L739.577,1236.75L981.145,1627.5L800.57,1627.5L655.722,1356.25C648.898,1344.7 643.114,1332.56 638.44,1319.98L636.27,1319.98C632.043,1332.28 626.426,1344.06 619.53,1355.09L470.497,1627.5L288.837,1627.5Z" style="fill:rgb(52,126,182);fill-rule:nonzero;"/>
        <rect x="15.03" y="0" width="2480" height="2480" style="fill:none;fill-rule:nonzero;"/>
    </g>
</svg>
