<?xml version="1.0" encoding="UTF-8" standalone="no"?>
<!DOCTYPE svg PUBLIC "-//W3C//DTD SVG 1.1//EN" "http://www.w3.org/Graphics/SVG/1.1/DTD/svg11.dtd">
<svg aria-label="formik icon" width="100%" height="100%" viewBox="0 0 41 41" version="1.1" xmlns="http://www.w3.org/2000/svg" xmlns:xlink="http://www.w3.org/1999/xlink" xml:space="preserve" xmlns:serif="http://www.serif.com/" style="fill-rule:evenodd;clip-rule:evenodd;stroke-linejoin:round;stroke-miterlimit:2;">
    <g transform="matrix(1,0,0,1,4.42262,0)">
        <path d="M20.406,0L25.138,2.721L6.504,13.436L1.773,10.715L20.406,0Z" style="fill:white;fill-rule:nonzero;"/>
    </g>
    <g transform="matrix(1,0,0,1,4.42262,0)">
        <path d="M25.329,3.292L6.812,13.935L6.812,19.32L25.328,8.677L25.329,3.292Z" style="fill:white;fill-rule:nonzero;"/>
    </g>
    <g transform="matrix(1,0,0,1,4.42262,0)">
        <path d="M17.883,13.801L6.851,20.142L6.851,25.527L17.882,19.186L17.883,13.801Z" style="fill:white;fill-rule:nonzero;"/>
    </g>
    <g transform="matrix(1,0,0,1,4.42262,0)">
        <path d="M13.654,22.314L6.825,26.24L6.824,31.625L13.653,27.699L13.654,22.314Z" style="fill:white;fill-rule:nonzero;"/>
    </g>
    <g transform="matrix(1,0,0,1,4.42262,0)">
        <path d="M1.436,11.235L6.196,13.97L6.194,19.356L1.435,16.621L1.436,11.235Z" style="fill:white;fill-rule:nonzero;"/>
    </g>
    <g transform="matrix(1,0,0,1,4.42262,0)">
        <path d="M1.482,17.404L6.183,20.107L6.181,25.493L1.48,22.79L1.482,17.404Z" style="fill:white;fill-rule:nonzero;"/>
    </g>
    <g transform="matrix(1,0,0,1,4.42262,0)">
        <path d="M1.48,23.537L6.183,26.24L6.181,31.981L1.478,29.278L1.48,23.537Z" style="fill:white;fill-rule:nonzero;"/>
    </g>
    <g transform="matrix(1,0,0,1,4.42262,0)">
        <path d="M11.96,41L7.228,38.279L25.651,27.685L30.382,30.406L11.96,41Z" style="fill:white;fill-rule:nonzero;"/>
    </g>
    <g transform="matrix(1,0,0,1,4.42262,0)">
        <path d="M6.853,37.813L25.342,27.186L25.342,21.801L6.854,32.428L6.853,37.813Z" style="fill:white;fill-rule:nonzero;"/>
    </g>
    <g transform="matrix(1,0,0,1,4.42262,0)">
        <path d="M14.272,27.32L25.303,20.979L25.304,15.594L14.272,21.935L14.272,27.32Z" style="fill:white;fill-rule:nonzero;"/>
    </g>
    <g transform="matrix(1,0,0,1,4.42262,0)">
        <path d="M18.5,18.807L25.329,14.882L25.33,9.497L18.501,13.422L18.5,18.807Z" style="fill:white;fill-rule:nonzero;"/>
    </g>
    <g transform="matrix(1,0,0,1,4.42262,0)">
        <path d="M30.718,29.923L25.959,27.187L25.961,21.801L30.72,24.537L30.718,29.923Z" style="fill:white;fill-rule:nonzero;"/>
    </g>
    <g transform="matrix(1,0,0,1,4.42262,0)">
        <path d="M30.673,23.719L25.972,21.016L25.974,15.63L30.675,18.333L30.673,23.719Z" style="fill:white;fill-rule:nonzero;"/>
    </g>
    <g transform="matrix(1,0,0,1,4.42262,0)">
        <path d="M30.675,17.586L25.972,14.883L25.974,9.245L30.677,11.948L30.675,17.586Z" style="fill:white;fill-rule:nonzero;"/>
    </g>
</svg>
