<?xml version="1.0" encoding="UTF-8" standalone="no"?>
<!DOCTYPE svg PUBLIC "-//W3C//DTD SVG 1.1//EN" "http://www.w3.org/Graphics/SVG/1.1/DTD/svg11.dtd">
<svg aria-label="get in it icon" width="100%" height="100%" viewBox="0 0 150 60" version="1.1" xmlns="http://www.w3.org/2000/svg" xmlns:xlink="http://www.w3.org/1999/xlink" xml:space="preserve" xmlns:serif="http://www.serif.com/" style="fill-rule:evenodd;clip-rule:evenodd;stroke-linejoin:round;stroke-miterlimit:2;">
    <path d="M19.93,23.61C19.29,24.4 18.69,25.14 18.5,25.33C15.83,28.74 14.5,30.17 12.23,32.14C11.05,33.22 10.41,33.67 10.11,33.67C9.865,33.67 9.766,33.52 9.766,33.27C9.766,30.76 17.12,21.54 20.52,19.76C20.52,20.21 20.42,20.35 19.83,20.9C19.19,21.49 19.04,21.73 19.04,22.13C19.04,22.67 19.29,23.07 19.93,23.61ZM17.9,30.61C15.83,37.02 14.6,40.28 12.48,44.76C9.668,50.78 7.645,54.13 5.722,55.91C5.031,56.55 4.045,57.19 3.699,57.19C3.354,57.19 3.157,56.7 3.157,55.76C3.157,53.69 3.995,51.52 5.919,48.41C7.251,46.29 8.632,44.37 9.569,43.38C11.3,41.56 11.3,41.56 11.3,41.16C11.3,40.67 10.9,40.32 10.26,40.32C9.125,40.32 7.448,41.7 4.834,44.76C1.874,48.26 0,52.51 0,55.71C0,58.37 1.282,60 3.354,60C5.376,60 7.103,58.92 9.47,56.15C12.04,53.14 14.9,48.07 16.57,43.58C18.94,37.27 21.26,30.91 23.63,24.54C23.73,24.35 23.77,24.15 23.92,23.95C24.56,22.97 24.56,22.97 24.56,22.57C24.56,22.13 24.22,21.83 23.33,21.54C24.12,20.3 24.51,19.17 24.51,18.08C24.51,16.95 23.53,15.96 22.39,15.96C19.34,15.96 14.06,20.2 9.963,26.07C7.596,29.43 6.363,32.09 6.363,34.01C6.363,35.84 7.497,36.92 9.322,36.92C10.85,36.92 12.04,36.28 14.45,34.21C15.78,33.03 16.47,32.34 17.9,30.61Z" style="fill-rule:nonzero;"/>
    <path d="M29.07,26.71C30.89,23.95 31.14,23.56 31.78,22.82C33.41,20.75 35.23,19.12 35.87,19.12C36.07,19.12 36.32,19.46 36.32,19.71C36.32,20.35 35.58,22.03 34.94,22.82C32.77,25.58 31.29,26.76 30.05,26.71L29.07,26.71ZM27.44,29.62C28.38,29.87 28.82,29.92 29.36,29.92C31.88,29.92 34.69,28.09 37.16,24.94C38.49,23.16 39.47,20.85 39.47,19.42C39.47,17.29 38.24,16.06 36.17,16.06C34.05,16.06 30.45,18.97 27.09,23.41C24.48,26.91 23.25,29.62 23.25,32.04C23.25,34.6 25.51,36.92 27.98,36.92C31.63,36.92 36.76,33.37 36.76,30.91C36.76,30.41 36.27,29.92 35.82,29.92C35.53,29.92 35.13,30.12 34.79,30.46C32.12,32.93 30.59,33.72 28.38,33.72C27.14,33.72 26.85,33.42 26.85,32.04C26.85,31.1 26.99,30.56 27.44,29.62Z" style="fill-rule:nonzero;"/>
    <path d="M49.69,15.27C50.82,13.05 51.36,12.12 53.54,8.32C53.98,7.531 54.13,7.137 54.13,6.792C54.13,5.855 52.84,4.671 51.96,4.671C51.41,4.671 50.92,4.967 50.77,5.411C50.62,5.756 50.48,6.052 50.38,6.397C50.28,6.447 50.28,6.594 50.18,6.792C48.16,11.18 47.81,11.82 45.74,15.91C45.3,16.01 45.3,16.01 43.82,16.11C43.82,16.11 43.37,16.11 42.73,16.01L41.94,16.01C40.91,16.01 40.27,16.75 40.27,17.89C40.27,18.97 40.96,19.36 43.03,19.36C43.37,19.36 43.57,19.36 44.06,19.26C43.57,20.55 43.28,21.14 42.73,22.37C39.82,28.73 39.18,30.66 39.18,33.37C39.18,35.73 39.97,36.97 41.5,36.97C42.09,36.97 42.49,36.52 42.49,35.78C42.49,35.68 42.49,35.64 42.39,35.54C42.09,34.6 42.09,34.6 42.09,34.26C42.09,32.78 43.03,29.77 44.46,26.56C45.54,24.1 46.28,22.52 46.58,21.83C47.37,19.96 47.37,19.96 48.01,18.57C50.08,18.13 50.08,18.13 53.19,16.7C54.42,16.11 55.11,15.57 55.11,15.07C55.11,14.58 54.82,14.19 54.42,14.19C54.27,14.19 53.93,14.29 53.24,14.48C53.04,14.58 52.45,14.73 51.86,14.83L49.64,15.27L49.69,15.27Z" style="fill-rule:nonzero;"/>
    <path d="M68.53,7.531C67.69,7.531 66.9,8.419 66.9,9.356C66.9,10.49 68.18,11.53 69.56,11.53C70.55,11.53 71.29,10.89 71.29,9.948C71.29,8.665 69.96,7.531 68.53,7.531ZM63.65,16.06C63.1,16.16 62.61,16.65 62.36,17.59C62.22,17.99 61.57,19.27 60.54,21.19C60.19,21.83 58.32,25.93 57.78,27.31C56.74,29.77 56.2,31.99 56.2,33.62C56.2,35.54 57.23,36.97 58.57,36.97C59.11,36.97 59.6,36.58 59.6,36.18C59.6,36.08 59.6,35.99 59.5,35.89C59.35,35.15 59.35,35.15 59.35,34.95C59.35,33.52 59.7,31.84 60.39,29.97C61.18,27.85 64.04,21.83 64.98,20.25C65.67,19.17 65.91,18.58 65.91,18.08C65.91,17.1 64.68,16.01 63.6,16.06L63.65,16.06Z" style="fill-rule:nonzero;"/>
    <path d="M76.72,24.99L77.8,23.9C76.27,29.13 76.07,30.07 76.07,32.63C76.07,34.65 76.52,35.94 77.46,36.87C78.15,37.51 79.03,37.96 79.68,37.96C80.42,37.96 80.96,37.56 80.96,37.07C80.96,36.77 80.81,36.38 80.56,35.94C79.58,34.16 79.53,33.91 79.53,32.73C79.53,29.87 80.42,26.47 82.34,21.93C82.88,20.65 83.03,20.06 83.03,19.37C83.03,17.69 82.29,16.56 81.2,16.56C80.56,16.56 80.32,16.75 78,19.37C75.33,22.38 73.71,24 69.71,27.65C70.4,26.47 71.04,25.33 71.59,24.3C74.05,19.96 74.3,19.37 74.3,18.48C74.3,17.39 73.02,16.16 71.88,16.16C71.19,16.16 70.6,16.7 70.55,17.39C70.4,18.78 70.35,18.92 68.43,22.87C63.84,32.04 63.2,33.47 63.2,34.31C63.2,35.79 64.14,37.07 65.27,37.07C66.01,37.07 66.41,36.73 67.1,35.59C67.25,35.25 67.44,34.95 67.69,34.65C68.03,34.06 68.33,33.77 71.19,30.76L76.72,24.99Z" style="fill-rule:nonzero;"/>
    <path d="M96.02,39.09C95.92,45.18 100.4,45.91 101.7,45.93L102.2,45.93L102.6,43.82C101.3,43.82 98.27,43.47 98.35,38.79C98.35,37.98 98.49,37.05 98.72,35.97L99.96,30.22C100.1,29.68 100.1,29.19 100.1,28.7C100.2,26.8 99.5,25.43 98.7,24.54C98.28,24.04 97.75,23.6 97.16,23.26L97.16,23.15C98.03,22.9 98.84,22.53 99.56,21.94C100.8,20.93 102.2,19.22 102.9,16.34L104,11.3C105.5,3.871 109.8,3.618 111.1,3.641L111.5,1.526C109.1,1.486 103.7,1.771 101.6,11.31L100.7,15.71C100,18.58 98.56,20.24 97.25,21.09C96.48,21.56 95.67,21.93 94.75,22.08L94.28,24.25C94.98,24.42 95.56,24.7 96.04,25.09C96.9,25.76 97.74,26.92 97.71,29.04C97.71,29.53 97.61,30.13 97.51,30.78L96.45,35.87C96.22,37.12 96.04,38.21 96.02,39.13L96.02,39.09Z" style="fill-rule:nonzero;"/>
    <path d="M148.3,7.124C148.4,0.999 144,0.264 142.7,0.241L142.4,0.241C142.3,0.241 142.3,0.241 142.3,0.291L141.8,2.416C143.1,2.436 146.1,2.766 146,7.47C146,8.29 145.9,9.218 145.6,10.31L144.4,16.08C144.3,16.63 144.3,17.12 144.2,17.61C144.2,19.53 144.9,20.91 145.7,21.8C146.1,22.3 146.6,22.74 147.2,23.08L147.2,23.19C146.3,23.45 145.5,23.82 144.8,24.41C143.6,25.43 142.2,27.15 141.6,30.04L140.5,35.11C139,42.58 134.8,42.83 133.5,42.81L133.1,44.94C135.4,44.94 140.8,44.69 142.8,35.1L143.7,30.68C144.3,27.79 145.8,26.12 147.1,25.27C147.8,24.79 148.6,24.42 149.5,24.27L150,22.09C149.3,21.92 148.7,21.63 148.3,21.24C147.4,20.57 146.6,19.41 146.6,17.27C146.6,16.78 146.7,16.18 146.8,15.53L147.9,10.4C148.1,9.148 148.3,8.057 148.3,7.127L148.3,7.124Z" style="fill-rule:nonzero;"/>
    <path d="M114.9,31.15L116,26.01C117.5,19.37 117.9,17.87 119.5,11.6L119.3,11.38L112.9,11.49L112.6,11.71C111.6,16.96 111.2,18.71 110,24.29L108.1,32.14L106.9,37.1L107.1,37.32L113.5,37.21L113.7,37.03L114.9,31.15Z" style="fill-rule:nonzero;"/>
    <path d="M130.1,29.66L131.7,22.25L133.2,16.01L135.4,16.01L139,16.16L139.3,15.9L140.4,11.6L140.2,11.38L134,11.49L121.7,11.49L121.4,11.67L120.2,15.94L120.4,16.23L124.6,16.09L126.9,16.09L125,24.44L123.2,31.88L121.9,37.14L122.1,37.35L128.3,37.25L128.5,37.03L130.1,29.69L130.1,29.66Z" style="fill-rule:nonzero;"/>
</svg>
