<?xml version="1.0" encoding="UTF-8" standalone="no"?>
<!DOCTYPE svg PUBLIC "-//W3C//DTD SVG 1.1//EN" "http://www.w3.org/Graphics/SVG/1.1/DTD/svg11.dtd">
<svg aria-label="github icon" width="100%" height="100%" viewBox="0 0 2500 2432" version="1.1" xmlns="http://www.w3.org/2000/svg" xmlns:xlink="http://www.w3.org/1999/xlink" xml:space="preserve" xmlns:serif="http://www.serif.com/" style="fill-rule:evenodd;clip-rule:evenodd;stroke-linejoin:round;stroke-miterlimit:2;">
    <g>
        <path d="M1245.17,0.18C557.568,0.18 0,557.65 0,1245.35C0,1795.5 356.777,2262.24 851.523,2426.89C913.75,2438.41 936.602,2399.88 936.602,2366.99C936.602,2337.3 935.439,2239.2 934.912,2135.16C588.496,2210.48 515.4,1988.25 515.4,1988.25C458.76,1844.32 377.148,1806.06 377.148,1806.06C264.18,1728.77 385.664,1730.36 385.664,1730.36C510.703,1739.14 576.543,1858.68 576.543,1858.68C687.598,2049.04 867.832,1994 938.887,1962.19C950.059,1881.7 982.334,1826.78 1017.94,1795.69C741.377,1764.19 450.635,1657.43 450.635,1180.32C450.635,1044.38 499.277,933.295 578.936,846.098C566.006,814.73 523.389,688.09 590.996,516.576C590.996,516.576 695.557,483.109 933.506,644.213C1032.82,616.615 1139.35,602.787 1245.17,602.318C1350.99,602.787 1457.59,616.615 1557.1,644.213C1794.77,483.109 1899.18,516.576 1899.18,516.576C1966.95,688.09 1924.32,814.73 1911.39,846.098C1991.22,933.295 2039.53,1044.37 2039.53,1180.32C2039.53,1658.56 1748.24,1763.87 1470.98,1794.69C1515.63,1833.33 1555.43,1909.12 1555.43,2025.28C1555.43,2191.88 1553.98,2325.97 1553.98,2366.99C1553.98,2400.12 1576.4,2438.95 1639.52,2426.72C2133.99,2261.89 2490.32,1795.32 2490.32,1245.35C2490.32,557.65 1932.83,0.18 1245.17,0.18" style="fill:white;fill-rule:nonzero;"/>
        <path d="M466.357,1773.95C463.623,1780.13 453.877,1781.99 445.02,1777.75C435.986,1773.69 430.908,1765.25 433.838,1759.04C436.523,1752.67 446.27,1750.89 455.283,1755.17C464.336,1759.22 469.492,1767.74 466.357,1773.95M527.607,1828.6C521.67,1834.11 510.059,1831.55 502.178,1822.85C494.033,1814.16 492.51,1802.56 498.535,1796.97C504.658,1791.47 515.918,1794.04 524.082,1802.73C532.227,1811.51 533.809,1823.04 527.598,1828.61M569.629,1898.52C561.992,1903.82 549.512,1898.85 541.807,1887.78C534.18,1876.71 534.18,1863.43 541.973,1858.11C549.707,1852.79 561.992,1857.57 569.805,1868.56C577.422,1879.82 577.422,1893.1 569.619,1898.53M640.684,1979.51C633.857,1987.03 619.326,1985.01 608.682,1974.74C597.803,1964.7 594.766,1950.45 601.611,1942.92C608.516,1935.38 623.135,1937.5 633.857,1947.69C644.668,1957.71 647.969,1972.06 640.693,1979.51M732.52,2006.85C729.521,2016.6 715.518,2021.03 701.416,2016.89C687.334,2012.62 678.115,2001.19 680.957,1991.34C683.887,1981.53 697.949,1976.91 712.158,1981.34C726.221,1985.59 735.459,1996.93 732.529,2006.85M837.051,2018.44C837.402,2028.72 825.439,2037.23 810.635,2037.42C795.742,2037.74 783.701,2029.43 783.545,2019.33C783.545,2008.96 795.234,2000.52 810.117,2000.28C824.922,1999.98 837.051,2008.24 837.051,2018.44M939.727,2014.51C941.504,2024.53 931.211,2034.82 916.514,2037.55C902.061,2040.19 888.682,2034.01 886.836,2024.08C885.039,2013.8 895.527,2003.52 909.951,2000.85C924.678,1998.3 937.852,2004.32 939.727,2014.51" style="fill:white;fill-rule:nonzero;"/>
    </g>
</svg>
