<?xml version="1.0" encoding="UTF-8" standalone="no"?>
<!DOCTYPE svg PUBLIC "-//W3C//DTD SVG 1.1//EN" "http://www.w3.org/Graphics/SVG/1.1/DTD/svg11.dtd">
<svg aria-label="graphql icon" width="100%" height="100%" viewBox="0 0 2179 2500" version="1.1" xmlns="http://www.w3.org/2000/svg" xmlns:xlink="http://www.w3.org/1999/xlink" xml:space="preserve" xmlns:serif="http://www.serif.com/" style="fill-rule:evenodd;clip-rule:evenodd;stroke-linejoin:round;stroke-miterlimit:2;">
    <g>
        <path d="M222.934,1874.15L135.531,1823.69L1109.21,137.275L1196.61,187.738L222.934,1874.15Z" style="fill:white;fill-rule:nonzero;"/>
        <rect x="115.516" y="1688.96" width="1947.36" height="100.925" style="fill:white;fill-rule:nonzero;"/>
        <path d="M1128.1,2308.04L154.05,1745.66L204.512,1658.26L1178.56,2220.64L1128.1,2308.04ZM1974.25,842.331L1000.2,279.95L1050.66,192.547L2024.71,754.928L1974.25,842.331Z" style="fill:white;fill-rule:nonzero;"/>
        <path d="M204.78,841.942L154.317,754.545L1128.36,192.164L1178.82,279.561L204.78,841.942Z" style="fill:white;fill-rule:nonzero;"/>
        <path d="M1956.29,1874.17L982.605,187.756L1070.01,137.293L2043.69,1823.71L1956.29,1874.17ZM192.73,687.619L293.654,687.619L293.654,1812.38L192.73,1812.38L192.73,687.619Z" style="fill:white;fill-rule:nonzero;"/>
        <rect x="1885.35" y="687.619" width="100.925" height="1124.76" style="fill:white;fill-rule:nonzero;"/>
        <path d="M1110.91,2265.33L1066.84,2188.98L1913.99,1699.86L1958.07,1776.2L1110.91,2265.33Z" style="fill:white;fill-rule:nonzero;"/>
        <path d="M2120.03,1845.21C2061.66,1946.75 1931.55,1981.4 1830.02,1923.03C1728.49,1864.67 1693.83,1734.56 1752.2,1633.03C1810.56,1531.5 1940.67,1496.84 2042.21,1555.21C2144.35,1614.18 2179,1743.68 2120.03,1845.21M426.194,866.973C367.828,968.505 237.72,1003.16 136.187,944.794C34.655,886.428 -0,756.32 58.366,654.788C116.732,553.255 246.84,518.6 348.372,576.966C449.905,635.94 484.56,765.44 426.194,866.973M58.974,1845.21C0.608,1743.68 35.263,1614.18 136.795,1555.21C238.328,1496.84 367.828,1531.5 426.802,1633.03C485.168,1734.56 450.513,1864.06 348.98,1923.03C246.84,1981.4 117.34,1946.75 58.974,1845.21M1752.81,866.973C1694.44,765.44 1729.1,635.94 1830.63,576.966C1932.16,518.6 2061.66,553.255 2120.63,654.788C2179,756.32 2144.35,885.82 2042.81,944.794C1941.28,1003.16 1811.17,968.505 1752.81,866.973M1089.5,2440.43C972.16,2440.43 877.315,2345.58 877.315,2228.24C877.315,2110.9 972.16,2016.06 1089.5,2016.06C1206.84,2016.06 1301.68,2110.9 1301.68,2228.24C1301.68,2344.97 1206.84,2440.43 1089.5,2440.43M1089.5,483.945C972.16,483.945 877.315,389.1 877.315,271.76C877.315,154.42 972.16,59.575 1089.5,59.575C1206.84,59.575 1301.68,154.42 1301.68,271.76C1301.68,389.1 1206.84,483.945 1089.5,483.945" style="fill:white;fill-rule:nonzero;"/>
    </g>
</svg>
