<?xml version="1.0" encoding="UTF-8" standalone="no"?>
<!DOCTYPE svg PUBLIC "-//W3C//DTD SVG 1.1//EN" "http://www.w3.org/Graphics/SVG/1.1/DTD/svg11.dtd">
<svg aria-label="headless ui icon" width="100%" height="100%" viewBox="0 0 32 32" version="1.1" xmlns="http://www.w3.org/2000/svg" xmlns:xlink="http://www.w3.org/1999/xlink" xml:space="preserve" xmlns:serif="http://www.serif.com/" style="fill-rule:evenodd;clip-rule:evenodd;stroke-linejoin:round;stroke-miterlimit:2;">
    <g transform="matrix(1,0,0,1,-0.160304,0)">
        <path d="M6.495,19.883L26.015,13.365C25.625,10.925 25.347,9.295 25.025,8.051C24.678,6.713 24.403,6.355 24.295,6.231C23.919,5.8 23.45,5.46 22.924,5.235C22.772,5.17 22.346,5.019 20.968,5.102C19.51,5.19 17.596,5.488 14.565,5.968C11.535,6.448 9.622,6.757 8.209,7.123C6.872,7.47 6.513,7.746 6.389,7.854C5.959,8.231 5.619,8.699 5.394,9.225C5.329,9.377 5.178,9.803 5.261,11.182C5.349,12.64 5.647,14.555 6.127,17.586C6.261,18.436 6.382,19.196 6.495,19.883Z" style="fill:white;fill-rule:nonzero;"/>
        <path d="M1.113,18.38C0.185,12.516 -0.28,9.584 0.726,7.23C1.25,6.002 2.045,4.908 3.05,4.03C4.977,2.347 7.908,1.883 13.77,0.954C19.634,0.024 22.565,-0.44 24.92,0.566C26.147,1.091 27.24,1.885 28.118,2.89C29.802,4.818 30.266,7.75 31.194,13.615C32.123,19.479 32.587,22.412 31.581,24.765C31.057,25.993 30.263,27.086 29.258,27.965C27.331,29.649 24.399,30.113 18.536,31.042C12.674,31.971 9.742,32.435 7.389,31.429C6.162,30.904 5.069,30.11 4.191,29.105C2.507,27.177 2.043,24.245 1.114,18.38L1.113,18.38ZM11.454,28.794C13.024,28.699 15.046,28.382 18.039,27.908C21.033,27.434 23.052,27.11 24.576,26.715C26.051,26.332 26.731,25.959 27.17,25.575C27.816,25.01 28.326,24.307 28.663,23.518C28.893,22.982 29.038,22.22 28.946,20.698C28.851,19.128 28.534,17.105 28.06,14.111C27.586,11.117 27.263,9.096 26.868,7.573C26.485,6.097 26.111,5.417 25.728,4.978C25.164,4.332 24.461,3.821 23.672,3.484C23.136,3.254 22.374,3.109 20.852,3.201C19.282,3.296 17.261,3.613 14.267,4.087C11.274,4.562 9.254,4.885 7.731,5.28C6.255,5.663 5.576,6.037 5.137,6.42C4.491,6.985 3.98,7.688 3.643,8.477C3.414,9.013 3.269,9.775 3.361,11.297C3.456,12.868 3.772,14.89 4.247,17.884C4.721,20.878 5.044,22.899 5.439,24.422C5.822,25.898 6.195,26.578 6.579,27.017C7.143,27.663 7.846,28.174 8.635,28.511C9.171,28.741 9.932,28.886 11.455,28.794L11.454,28.794Z" style="fill:white;"/>
    </g>
</svg>
