<?xml version="1.0" encoding="UTF-8" standalone="no"?>
<!DOCTYPE svg PUBLIC "-//W3C//DTD SVG 1.1//EN" "http://www.w3.org/Graphics/SVG/1.1/DTD/svg11.dtd">
<svg width="100%" height="100%" viewBox="0 0 2261 2500" version="1.1" xmlns="http://www.w3.org/2000/svg" xmlns:xlink="http://www.w3.org/1999/xlink" xml:space="preserve" xmlns:serif="http://www.serif.com/" style="fill-rule:evenodd;clip-rule:evenodd;stroke-linejoin:round;stroke-miterlimit:2;">
    <path d="M1593.11,1147.74C1593.11,1102.26 1556.24,1065.38 1510.75,1065.38C1507.82,1065.38 1504.94,1065.54 1502.09,1065.84L1615.22,732.19L1134.48,732.19L1247.44,1065.55C1245.78,1065.44 1244.11,1065.39 1242.44,1065.38C1196.95,1065.38 1160.08,1102.25 1160.08,1147.75C1160.08,1184.51 1184.17,1215.64 1217.43,1226.23C1199.87,1256.66 1177.76,1284.06 1152.67,1307.74C1118.54,1339.93 1079.49,1364.34 1037.25,1379.38C986.965,1353.54 963.219,1296.09 984.645,1245.72C987.066,1240.03 989.536,1234.26 991.897,1228.52C1028.33,1220.02 1055.48,1187.36 1055.48,1148.34C1055.48,1102.85 1018.6,1065.97 973.114,1065.97C927.625,1065.97 890.752,1102.85 890.752,1148.34C890.752,1176.23 904.629,1200.87 925.845,1215.77C905.459,1262.18 875.493,1310.76 866.157,1367.06C854.967,1434.53 866.119,1506.15 924.475,1546.59C1060.38,1640.79 1207.9,1488.2 1363.45,1449.84C1419.82,1435.94 1481.7,1438.18 1531.36,1409.42C1568.66,1387.82 1593.25,1352.02 1600.22,1311.83C1607.12,1272.12 1597.07,1232.59 1573.96,1200.54C1586.35,1185.75 1593.14,1167.04 1593.11,1147.74" style="fill:rgb(52,126,182);fill-rule:nonzero;"/>
    <path d="M1580.41,1308.38C1574.35,1343.28 1552.8,1373.76 1521.28,1392.01C1491.9,1409.03 1456.7,1414.11 1419.42,1419.48C1399.45,1422.36 1378.8,1425.34 1358.63,1430.31C1305.3,1443.46 1253.63,1469.13 1203.68,1493.94C1103.69,1543.6 1017.35,1586.49 935.937,1530.06C876.299,1488.73 879.052,1412.25 885.999,1370.35C892.439,1331.52 909.849,1295.77 926.682,1261.19C929.549,1255.31 932.394,1249.42 935.216,1243.52C943.701,1246.91 952.605,1249.15 961.686,1250.16C944.549,1306.72 971.499,1368.21 1028.06,1397.27L1035.81,1401.25L1044,1398.33C1088.72,1382.4 1129.92,1356.85 1166.47,1322.37C1190.1,1300.08 1210.41,1275.42 1227.1,1249.07C1232.18,1249.84 1237.31,1250.22 1242.44,1250.22C1294.35,1250.22 1337.34,1211.41 1344,1161.29C1365.25,1160.51 1387.82,1160.5 1409.19,1161.28C1415.84,1211.41 1458.83,1250.23 1510.75,1250.23C1532.46,1250.23 1552.59,1243.42 1569.18,1231.87C1580.69,1255.44 1584.99,1281.96 1580.41,1308.38ZM973.117,1086.09C1007.44,1086.09 1035.36,1114.01 1035.36,1148.34C1035.36,1160.67 1031.75,1172.16 1025.54,1181.84C1015.19,1197.98 997.6,1209.04 977.394,1210.42C975.98,1210.52 974.553,1210.59 973.117,1210.59C965.467,1210.59 958.14,1209.19 951.365,1206.66C937.723,1201.53 926.292,1191.79 919.057,1179.14C913.684,1169.76 910.86,1159.14 910.868,1148.34C910.868,1114.01 938.793,1086.09 973.117,1086.09ZM1180.19,1147.75C1180.19,1116.56 1203.25,1090.67 1233.2,1086.19C1236.22,1085.74 1239.3,1085.5 1242.44,1085.5C1262.4,1085.5 1280.16,1094.95 1291.56,1109.6C1294.41,1113.25 1296.85,1117.21 1298.82,1121.4C1302.69,1129.65 1304.69,1138.64 1304.69,1147.75C1304.69,1152.72 1304.09,1157.56 1302.98,1162.2C1296.91,1187.59 1275.26,1207.01 1248.72,1209.68C1246.66,1209.89 1244.56,1209.99 1242.44,1209.99C1230.47,1210 1218.75,1206.54 1208.71,1200.02C1191.57,1188.92 1180.19,1169.64 1180.19,1147.75ZM1439.99,1073.72C1426.45,1086.65 1416.7,1103.05 1411.8,1121.12C1388.34,1120.25 1364.86,1120.25 1341.39,1121.12C1336.13,1101.58 1325.21,1084.34 1310.52,1071.25L1374.93,941.007L1439.99,1073.72ZM1162.53,752.312L1587.16,752.312L1486.86,1048.1C1482.55,1049.14 1478.31,1050.45 1474.16,1052.04L1375.09,849.933L1275.74,1050.83C1271.4,1049.34 1266.98,1048.15 1262.49,1047.26L1162.53,752.312ZM1573,1147.75C1573,1153.99 1572.06,1160.01 1570.35,1165.7C1566.28,1179.1 1557.83,1190.75 1546.36,1198.77C1535.93,1206.08 1523.49,1210.01 1510.75,1210C1482.01,1210 1457.76,1190.41 1450.63,1163.89C1449.22,1158.62 1448.5,1153.2 1448.5,1147.75C1448.5,1139.24 1450.22,1131.13 1453.32,1123.73C1454.93,1119.95 1456.9,1116.34 1459.21,1112.94C1470.41,1096.41 1489.32,1085.5 1510.75,1085.5C1512.71,1085.5 1514.65,1085.6 1516.57,1085.79C1548.18,1088.73 1573,1115.39 1573,1147.75L1573,1147.75ZM1613.23,1147.75C1613.23,1097.72 1577.18,1055.97 1529.7,1047.06L1643.28,712.075L1106.42,712.075L1220.17,1047.73C1174.34,1057.93 1139.96,1098.89 1139.96,1147.75C1139.96,1184.43 1159.35,1216.66 1188.41,1234.77C1174.43,1255.59 1157.86,1275.19 1138.87,1293.11C1108.74,1321.52 1075.19,1343.07 1039.01,1357.25C1002.57,1334.36 987.166,1291.19 1003.16,1253.59L1004.42,1250.64L1006.77,1245.11C1046.79,1231.15 1075.6,1193.06 1075.6,1148.34C1075.6,1091.83 1029.62,1045.86 973.117,1045.86C916.611,1045.86 870.634,1091.83 870.634,1148.34C870.634,1176.86 882.359,1202.69 901.227,1221.29C897.708,1228.74 894.136,1236.17 890.511,1243.58C873.258,1279.01 853.707,1319.17 846.311,1363.77C831.625,1452.33 855.315,1523.14 913.018,1563.13C948.032,1587.39 983.592,1596.94 1019.37,1596.94C1086.75,1596.94 1154.91,1563.09 1221.57,1529.97C1269.58,1506.13 1319.23,1481.47 1368.27,1469.37C1386.51,1464.88 1405.29,1462.17 1425.16,1459.3C1464.58,1453.61 1505.34,1447.74 1541.44,1426.83C1583.3,1402.59 1611.94,1361.92 1620.05,1315.27C1627,1275.22 1618.63,1235.1 1598.22,1201.08C1608.05,1185.03 1613.25,1166.57 1613.23,1147.75L1613.23,1147.75Z" style="fill:white;fill-rule:nonzero;"/>
</svg>
