<?xml version="1.0" encoding="UTF-8" standalone="no"?>
<!DOCTYPE svg PUBLIC "-//W3C//DTD SVG 1.1//EN" "http://www.w3.org/Graphics/SVG/1.1/DTD/svg11.dtd">
<svg aria-label="jira icon" width="100%" height="100%" viewBox="0 0 2500 2500" version="1.1" xmlns="http://www.w3.org/2000/svg" xmlns:xlink="http://www.w3.org/1999/xlink" xml:space="preserve" xmlns:serif="http://www.serif.com/" style="fill-rule:evenodd;clip-rule:evenodd;stroke-linejoin:round;stroke-miterlimit:2;">
    <path d="M2272.85,267.806L1197.94,267.806C1197.94,533.997 1416.98,753.038 1683.17,753.038L1881.18,753.038L1881.18,944.221C1881.36,1211.96 2098.36,1428.97 2366.1,1429.15L2366.1,361.055C2366.1,309.57 2324.36,267.806 2272.85,267.806Z" style="fill:white;fill-rule:nonzero;"/>
    <path d="M1740.98,803.395L666.082,803.395C666.248,1071.14 883.248,1288.15 1151,1288.32L1349.01,1288.32L1349.01,1480.12C1349.35,1747.86 1566.5,1964.72 1834.24,1964.72L1834.24,896.661C1834.24,845.158 1792.49,803.404 1740.98,803.404L1740.98,803.395Z" style="fill:white;fill-rule:nonzero;"/>
    <path d="M1208.81,1338.68L133.903,1338.68C133.903,1606.66 351.157,1823.91 619.135,1823.91L817.766,1823.91L817.766,2015.08C817.941,2282.58 1034.57,2499.49 1302.07,2500L1302.07,1431.93C1302.07,1380.43 1260.32,1338.68 1208.81,1338.68Z" style="fill:white;fill-rule:nonzero;"/>
</svg>
