<?xml version="1.0" encoding="UTF-8" standalone="no"?>
<!DOCTYPE svg PUBLIC "-//W3C//DTD SVG 1.1//EN" "http://www.w3.org/Graphics/SVG/1.1/DTD/svg11.dtd">
<svg width="100%" height="100%" viewBox="0 0 2490 2500" version="1.1" xmlns="http://www.w3.org/2000/svg" xmlns:xlink="http://www.w3.org/1999/xlink" xml:space="preserve" xmlns:serif="http://www.serif.com/" style="fill-rule:evenodd;clip-rule:evenodd;stroke-linejoin:round;stroke-miterlimit:2;">
    <g>
        <path d="M0,183.366C0,84.913 82.423,5 184.027,5L2305.97,5C2407.62,5 2490,84.913 2490,183.366L2490,2316.66C2490,2415.14 2407.62,2495 2305.97,2495L184.027,2495C82.433,2495 0,2415.16 0,2316.69L0,183.337L0,183.366Z" style="fill:white;fill-rule:nonzero;"/>
        <path d="M756.688,2088.8L756.688,967.794L384.083,967.794L384.083,2088.8L756.727,2088.8L756.688,2088.8ZM570.463,814.766C700.371,814.766 781.247,728.685 781.247,621.11C778.816,511.083 700.371,427.405 572.933,427.405C445.408,427.405 362.12,511.083 362.12,621.1C362.12,728.676 442.967,814.756 568.022,814.756L570.434,814.756L570.463,814.766ZM962.93,2088.8L1335.51,2088.8L1335.51,1462.85C1335.51,1429.39 1337.94,1395.84 1347.78,1371.94C1374.7,1304.98 1436.01,1235.65 1538.97,1235.65C1673.76,1235.65 1727.71,1338.44 1727.71,1489.16L1727.71,2088.8L2100.28,2088.8L2100.28,1446.05C2100.28,1101.74 1916.48,941.512 1671.34,941.512C1470.36,941.512 1382.1,1053.84 1333.06,1130.35L1335.54,1130.35L1335.54,967.832L962.949,967.832C967.812,1073 962.92,2088.84 962.92,2088.84L962.93,2088.8Z" style="fill:rgb(52,126,182);fill-rule:nonzero;"/>
    </g>
</svg>
