<?xml version="1.0" encoding="UTF-8" standalone="no"?>
<!DOCTYPE svg PUBLIC "-//W3C//DTD SVG 1.1//EN" "http://www.w3.org/Graphics/SVG/1.1/DTD/svg11.dtd">
<svg aria-label="microsoft teams icon" width="100%" height="100%" viewBox="0 0 2500 2458" version="1.1" xmlns="http://www.w3.org/2000/svg" xmlns:xlink="http://www.w3.org/1999/xlink" xml:space="preserve" xmlns:serif="http://www.serif.com/" style="fill-rule:evenodd;clip-rule:evenodd;stroke-linejoin:round;stroke-miterlimit:2;">
    <circle cx="1320.52" cy="460.875" r="358.484" style="fill:white;"/>
    <path d="M1294.94,537.688L970.255,537.688L971.868,544.831L972.021,545.446L973.711,552.051C1022.44,736.823 1210.66,851.907 1397.33,811.063L1397.33,640.079C1397.16,583.972 1351.05,537.855 1294.94,537.688Z" style="fill:white;fill-opacity:0.1;fill-rule:nonzero;"/>
    <path d="M1218.13,614.5L996.601,614.5C1055.84,739.406 1182.28,819.367 1320.52,819.359L1320.52,716.891C1320.35,660.785 1274.24,614.668 1218.13,614.5Z" style="fill:white;fill-opacity:0.2;fill-rule:nonzero;"/>
    <circle cx="2127.05" cy="576.094" r="268.844" style="fill:white;"/>
    <path d="M2357.49,921.75L1753.66,921.75C1726.7,921.75 1704.51,943.942 1704.51,970.91L1704.51,1593.86C1701.09,1778.98 1828.82,1942.68 2009.22,1984.37C2035.19,1989.82 2061.65,1992.57 2088.18,1992.57C2299.03,1992.57 2472.57,1819.15 2472.71,1608.3L2472.71,1036.97C2472.71,973.762 2420.7,921.75 2357.49,921.75Z" style="fill:white;fill-rule:nonzero;"/>
    <path d="M1935.02,1036.97L1935.02,1766.69C1935.02,1766.8 1935.02,1766.92 1935.02,1767.03C1935.02,2103.92 1657.8,2381.15 1320.9,2381.15C1101.71,2381.15 898.519,2263.79 788.977,2073.94C774.196,2049.37 761.355,2023.69 750.571,1997.12C740.517,1972.08 732.051,1946.42 725.223,1920.31C712.559,1870.08 706.11,1818.49 706.02,1766.69L706.02,1036.97C706.02,1036.92 706.02,1036.87 706.02,1036.82C706.02,973.692 757.962,921.75 821.085,921.75C821.136,921.75 821.187,921.75 821.238,921.75L1819.8,921.75C1819.85,921.75 1819.9,921.75 1819.95,921.75C1883.08,921.75 1935.02,973.692 1935.02,1036.82C1935.02,1036.87 1935.02,1036.92 1935.02,1036.97Z" style="fill:white;fill-rule:nonzero;"/>
    <path d="M1218.13,614.5L996.601,614.5C1055.84,739.406 1182.28,819.367 1320.52,819.359L1320.52,716.891C1320.35,660.785 1274.24,614.668 1218.13,614.5Z" style="fill:white;fill-opacity:0.2;fill-rule:nonzero;"/>
    <path d="M1397.33,921.75L1397.33,1894.96C1397.33,1942.5 1363.9,1983.97 1317.45,1994.05C1310.22,1996.2 1302.71,1997.24 1295.17,1997.12L750.571,1997.12C740.517,1972.08 732.051,1946.42 725.223,1920.31C712.559,1870.08 706.11,1818.49 706.02,1766.69L706.02,1036.97C706.02,1036.92 706.02,1036.87 706.02,1036.82C706.02,973.692 757.962,921.75 821.085,921.75C821.136,921.75 821.187,921.75 821.238,921.75L1397.33,921.75Z" style="fill:white;fill-opacity:0.1;fill-rule:nonzero;"/>
    <path d="M1320.52,921.75L1320.52,1971.78C1320.63,1979.32 1319.6,1986.83 1317.45,1994.05C1307.36,2040.51 1265.9,2073.94 1218.36,2073.94L788.977,2073.94C774.196,2049.37 761.355,2023.69 750.571,1997.12C740.517,1972.08 732.051,1946.42 725.223,1920.31C712.559,1870.08 706.11,1818.49 706.02,1766.69L706.02,1036.97C706.02,1036.92 706.02,1036.87 706.02,1036.82C706.02,973.692 757.962,921.75 821.085,921.75C821.136,921.75 821.187,921.75 821.238,921.75L1320.52,921.75Z" style="fill:white;fill-opacity:0.2;fill-rule:nonzero;"/>
    <path d="M1320.52,921.75L1320.52,1818.15C1320.27,1874.1 1274.31,1920.06 1218.36,1920.31L725.223,1920.31C712.559,1870.08 706.11,1818.49 706.02,1766.69L706.02,1036.97C706.02,1036.92 706.02,1036.87 706.02,1036.82C706.02,973.692 757.962,921.75 821.085,921.75C821.136,921.75 821.187,921.75 821.238,921.75L1320.52,921.75Z" style="fill:white;fill-opacity:0.2;fill-rule:nonzero;"/>
    <path d="M821.238,921.75C821.187,921.75 821.136,921.75 821.085,921.75C757.962,921.75 706.02,973.692 706.02,1036.82C706.02,1036.87 706.02,1036.92 706.02,1036.97L706.02,1766.69C706.11,1818.49 712.559,1870.08 725.223,1920.31L1141.55,1920.31C1197.5,1920.06 1243.46,1874.1 1243.71,1818.15L1243.71,921.75L821.238,921.75Z" style="fill:white;fill-opacity:0.2;fill-rule:nonzero;"/>
    <path d="M117.098,614.5L1141.32,614.5C1197.49,614.5 1243.71,660.721 1243.71,716.891L1243.71,1741.11C1243.71,1797.28 1197.49,1843.5 1141.32,1843.5L117.098,1843.5C60.928,1843.5 14.707,1797.28 14.707,1741.11L14.707,716.891C14.707,660.721 60.928,614.5 117.098,614.5Z" style="fill:white;fill-rule:nonzero;"/>
    <path d="M934.921,996.642L705.252,996.642L705.252,1612.68L554.545,1612.68L554.545,996.642L323.493,996.642L323.493,845.322L934.921,845.322L934.921,996.642Z" style="fill:rgb(52,126,182);fill-rule:nonzero;"/>
    <rect x="14.707" y="0" width="2458" height="2458" style="fill:none;fill-rule:nonzero;"/>
</svg>
