<?xml version="1.0" encoding="UTF-8" standalone="no"?>
<!DOCTYPE svg PUBLIC "-//W3C//DTD SVG 1.1//EN" "http://www.w3.org/Graphics/SVG/1.1/DTD/svg11.dtd">
<svg aria-label="next.js icon" width="100%" height="100%" viewBox="0 0 1024 1024" version="1.1" xmlns="http://www.w3.org/2000/svg" xmlns:xlink="http://www.w3.org/1999/xlink" xml:space="preserve" xmlns:serif="http://www.serif.com/" style="fill-rule:evenodd;clip-rule:evenodd;stroke-linejoin:round;stroke-miterlimit:2;">
    <path d="M478.503,0.8C476.303,1 469.304,1.7 463.005,2.2C317.719,15.299 181.632,93.691 95.441,214.179C47.445,281.173 16.748,357.165 5.149,437.657C1.05,465.755 0.55,474.054 0.55,512.15C0.55,550.246 1.05,558.545 5.149,586.643C32.947,778.724 169.633,940.108 355.015,999.902C388.212,1010.6 423.209,1017.9 463.005,1022.3C478.503,1024 545.497,1024 560.995,1022.3C629.689,1014.7 687.883,997.703 745.277,968.405C754.076,963.906 755.776,962.706 754.576,961.706C753.776,961.106 716.28,910.811 671.284,850.017L589.492,739.528L487.002,587.843C430.608,504.451 384.212,436.257 383.813,436.257C383.413,436.157 383.013,503.551 382.813,585.843C382.513,729.929 382.413,735.728 380.613,739.128C378.013,744.027 376.013,746.027 371.814,748.227C368.614,749.827 365.814,750.127 350.716,750.127L333.417,750.127L328.818,747.227C325.818,745.327 323.618,742.827 322.119,739.928L320.019,735.428L320.219,534.948L320.519,334.367L323.618,330.468C325.218,328.368 328.618,325.668 331.018,324.368C335.117,322.369 336.717,322.169 354.015,322.169C374.413,322.169 377.813,322.968 383.113,328.768C384.612,330.368 440.107,413.96 506.501,514.65C572.894,615.34 663.685,752.826 708.281,820.32L789.273,943.008L793.373,940.308C829.669,916.71 868.065,883.114 898.462,848.117C963.156,773.824 1004.85,683.233 1018.85,586.643C1022.95,558.545 1023.45,550.246 1023.45,512.15C1023.45,474.054 1022.95,465.755 1018.85,437.657C991.053,245.576 854.367,84.192 668.985,24.398C636.288,13.799 601.491,6.499 562.495,2.1C552.896,1.1 486.802,-0 478.503,0.8ZM687.883,310.17C692.682,312.569 696.582,317.169 697.982,321.969C698.782,324.568 698.982,380.163 698.782,505.451L698.482,685.233L666.785,636.638L634.988,588.043L634.988,457.355C634.988,372.864 635.388,325.368 635.988,323.068C637.588,317.469 641.087,313.069 645.887,310.47C649.987,308.37 651.486,308.17 667.185,308.17C681.983,308.17 684.583,308.37 687.883,310.17Z" style="fill:white;fill-rule:nonzero;"/>
    <path d="M784.273,945.208C780.774,947.407 779.674,948.907 782.774,947.207C784.973,945.908 788.573,943.208 787.973,943.108C787.673,943.108 785.973,944.108 784.273,945.208ZM777.374,949.707C775.574,951.107 775.574,951.207 777.774,950.107C778.974,949.507 779.974,948.807 779.974,948.607C779.974,947.807 779.474,948.007 777.374,949.707ZM772.375,952.707C770.575,954.107 770.575,954.207 772.775,953.107C773.974,952.507 774.974,951.807 774.974,951.607C774.974,950.807 774.474,951.007 772.375,952.707ZM767.375,955.707C765.575,957.107 765.575,957.207 767.775,956.107C768.975,955.507 769.975,954.807 769.975,954.607C769.975,953.807 769.475,954.007 767.375,955.707ZM759.776,959.706C755.976,961.706 756.176,962.506 759.976,960.606C761.676,959.706 762.975,958.806 762.975,958.606C762.975,957.906 762.876,958.006 759.776,959.706Z" style="fill-rule:nonzero;"/>
</svg>
