<?xml version="1.0" encoding="UTF-8" standalone="no"?>
<!DOCTYPE svg PUBLIC "-//W3C//DTD SVG 1.1//EN" "http://www.w3.org/Graphics/SVG/1.1/DTD/svg11.dtd">
<svg aria-label="nrwl icon" width="100%" height="100%" viewBox="0 0 165 125" version="1.1" xmlns="http://www.w3.org/2000/svg" xmlns:xlink="http://www.w3.org/1999/xlink" xml:space="preserve" xmlns:serif="http://www.serif.com/" style="fill-rule:evenodd;clip-rule:evenodd;stroke-linejoin:round;stroke-miterlimit:2;">
    <g transform="matrix(1,0,0,1,-0.014134,5.17826)">
        <g id="Layer_2">
            <g id="Layer_1-2">
                <g id="Color_on_white_horizontal">
                    <g id="LOGO">
                        <g id="whale">
                            <g id="bdy">
                                <path id="tusk" d="M91.09,105.22C91.09,103.574 92.444,102.22 94.09,102.22L94.36,102.22C94.575,102.223 94.789,102.264 94.99,102.34L165.45,115L93.64,108.25C92.156,108.025 91.058,106.72 91.09,105.22Z" style="fill:white;fill-rule:nonzero;"/>
                                <path d="M124,50.79L123.81,50.79C119,50 114.3,46.49 112.7,42C105.792,17.27 83.092,0.042 57.416,0.042C25.927,0.042 0.016,25.953 0.016,57.442C0.016,82.493 16.415,104.783 40.33,112.24C56.89,117.002 74.602,115.856 90.41,109C94.19,107.21 94.86,104.37 94.86,102.52C94.86,100.67 93.22,99.45 92.62,98.63C92.328,98.298 92.14,97.888 92.08,97.45C91.082,83.114 79.011,71.852 64.64,71.85L62.87,71.85C62.867,71.85 62.864,71.85 62.86,71.85C50.051,71.85 39.51,61.309 39.51,48.5C39.51,42.388 41.91,36.514 46.19,32.15C51.907,26.112 59.875,22.7 68.19,22.73C81.999,22.711 94.187,32.051 97.76,45.39C95.455,48.199 92.225,50.1 88.65,50.75C82.298,51.866 77.324,56.921 76.31,63.29C82.19,63.29 86.1,71.29 97.02,71.29C101.04,71.296 104.681,68.852 106.2,65.13C107.727,68.85 111.369,71.291 115.39,71.29C118.35,71.31 121.277,70.661 123.95,69.39L124,50.79ZM59.21,98.79C59.56,97.33 60.73,97.95 62.27,98.33C63.81,98.71 65.13,98.69 64.78,100.14C64.415,101.348 63.295,102.181 62.032,102.181C60.458,102.181 59.162,100.886 59.162,99.311C59.162,99.136 59.178,98.962 59.21,98.79Z" style="fill:white;fill-rule:nonzero;"/>
                                <g id="right_fin">
                                    <path d="M52.51,69.4C53.367,65.384 56.761,62.373 60.85,62C60.804,64.605 61.969,67.089 64,68.72C65.275,69.526 66.311,70.659 67,72L67,75L52.51,75L52.51,69.4Z" style="fill:white;fill-rule:nonzero;"/>
                                </g>
                            </g>
                            <g id="highlights">
                                <path d="M12.9,93.81C4.575,83.548 0.029,70.729 0.029,57.515C0.029,31.279 17.951,8.198 43.37,1.7C24.74,7 3.9,24 3.9,53.7C3.9,91.36 35.24,98.7 49.81,105.42C58.66,109.53 61.81,112.98 63,115.06L60.84,115.06C53.902,115.07 46.997,114.1 40.33,112.18C33.49,110.11 25.68,105.54 20.23,101.25C21,101.36 16.38,98.65 11.84,92.43" style="fill:white;fill-rule:nonzero;"/>
                                <g transform="matrix(0.974213,-0.225631,0.225631,0.974213,-13.17,7.12)">
                                    <ellipse cx="24.58" cy="61.18" rx="1.95" ry="2.79" style="fill:white;"/>
                                </g>
                                <g transform="matrix(0.772068,-0.635539,0.635539,0.772068,-38.68,37.09)">
                                    <ellipse cx="32.38" cy="72.47" rx="2.56" ry="3.66" style="fill:white;"/>
                                </g>
                                <g transform="matrix(0.0716715,-0.997428,0.997428,0.0716715,-17.99,75.41)">
                                    <ellipse cx="31.51" cy="47.37" rx="2.79" ry="1.95" style="fill:white;"/>
                                </g>
                                <g transform="matrix(0.999108,-0.0422244,0.0422244,0.999108,-2.13,1.09)">
                                    <ellipse cx="24.79" cy="51" rx="0.98" ry="1.4" style="fill:white;"/>
                                </g>
                                <path id="left_fin" d="M38.21,105.63C34.028,109.449 28.808,111.948 23.21,112.81C22.397,112.93 21.577,113.02 20.75,113.08C19.167,113.185 17.578,113.158 16,113C14.106,112.812 12.2,112.778 10.3,112.9C7.06,113.103 3.866,113.776 0.82,114.9C0.287,113.543 0.014,112.098 0.014,110.64C0.014,104.498 4.868,99.355 11,99C13.284,98.834 15.566,99.356 17.55,100.5C19.509,101.62 21.746,102.161 24,102.06C26.078,101.93 28.083,101.239 29.8,100.06C31.517,98.881 31.14,98.89 34.3,100.93C38.92,103.91 38.21,105.63 38.21,105.63Z" style="fill:white;fill-rule:nonzero;"/>
                            </g>
                        </g>
                    </g>
                </g>
            </g>
        </g>
    </g>
</svg>
