<?xml version="1.0" encoding="UTF-8" standalone="no"?>
<!DOCTYPE svg PUBLIC "-//W3C//DTD SVG 1.1//EN" "http://www.w3.org/Graphics/SVG/1.1/DTD/svg11.dtd">
<svg aria-label="powerpoint icon" width="100%" height="100%" viewBox="0 0 2500 2478" version="1.1" xmlns="http://www.w3.org/2000/svg" xmlns:xlink="http://www.w3.org/1999/xlink" xml:space="preserve" xmlns:serif="http://www.serif.com/" style="fill-rule:evenodd;clip-rule:evenodd;stroke-linejoin:round;stroke-miterlimit:2;">
    <path d="M1409.03,154.875C814.949,156.607 326.633,644.923 324.901,1239L1698.41,1528.38L1409.03,154.875Z" style="fill:white;fill-rule:nonzero;"/>
    <path d="M1409.03,154.875C2003.1,156.607 2491.42,644.923 2493.15,1239L1951.09,1607.45L1409.03,1239L1409.03,154.875Z" style="fill:white;fill-rule:nonzero;"/>
    <path d="M1409.03,2323.12C2003.1,2321.39 2491.42,1833.08 2493.15,1239L324.901,1239C326.633,1833.08 814.949,2321.39 1409.03,2323.12Z" style="fill:white;fill-rule:nonzero;"/>
    <path d="M1305.72,542.063L580.909,542.063C215.617,972.464 247.347,1620.7 652.926,2013.38L1305.72,2013.38C1362.32,2013.25 1408.86,1966.74 1409.03,1910.15L1409.03,645.287C1408.86,588.694 1362.32,542.189 1305.72,542.063Z" style="fill-opacity:0.1;fill-rule:nonzero;"/>
    <path d="M1228.29,619.5L521.592,619.5C191.958,1087.21 289.729,1740.17 741.902,2090.81L1228.36,2090.81C1284.93,2090.64 1331.42,2044.15 1331.59,1987.59L1331.59,722.724C1331.42,666.132 1284.88,619.627 1228.29,619.5Z" style="fill-opacity:0.2;fill-rule:nonzero;"/>
    <path d="M1228.29,619.5L521.592,619.5C239.69,1019.19 264.203,1563.23 580.909,1935.94L1228.36,1935.94C1284.93,1935.77 1331.42,1889.28 1331.59,1832.71L1331.59,722.724C1331.42,666.132 1284.88,619.627 1228.29,619.5Z" style="fill-opacity:0.2;fill-rule:nonzero;"/>
    <path d="M1150.85,619.5L521.592,619.5C239.69,1019.19 264.203,1563.23 580.909,1935.94L1150.93,1935.94C1207.49,1935.77 1253.98,1889.28 1254.15,1832.71L1254.15,722.724C1253.98,666.132 1207.44,619.627 1150.85,619.5Z" style="fill-opacity:0.2;fill-rule:nonzero;"/>
    <path d="M118.375,619.5L1150.93,619.5C1207.55,619.5 1254.15,666.097 1254.15,722.724L1254.15,1755.28C1254.15,1811.9 1207.55,1858.5 1150.93,1858.5L118.375,1858.5C61.748,1858.5 15.151,1811.9 15.151,1755.28L15.151,722.724C15.151,666.097 61.748,619.5 118.375,619.5Z" style="fill:white;fill-rule:nonzero;"/>
    <path d="M634.418,851.813C710.651,846.68 786.283,868.78 847.759,914.15C898.825,959.716 926.155,1026.36 921.789,1094.66C922.634,1138.45 909.83,1181.44 885.161,1217.63C860.05,1257.63 823.9,1289.53 781.085,1309.47C732.132,1332.2 678.622,1343.43 624.661,1342.3L476.756,1342.3L476.756,1626.19L324.901,1626.19L324.901,851.813L634.418,851.813ZM476.678,1214.45L607.315,1214.45C648.724,1217.5 689.846,1205.26 722.852,1180.07C749.548,1162.9 764.605,1132.25 761.88,1100.62C761.88,1014.97 711.985,972.15 612.194,972.15L476.678,972.15L476.678,1214.45Z" style="fill:rgb(52,126,182);fill-rule:nonzero;"/>
    <rect x="15.151" y="0" width="2478" height="2478" style="fill:none;fill-rule:nonzero;"/>
</svg>
