<?xml version="1.0" encoding="UTF-8" standalone="no"?>
<!DOCTYPE svg PUBLIC "-//W3C//DTD SVG 1.1//EN" "http://www.w3.org/Graphics/SVG/1.1/DTD/svg11.dtd">
<svg width="100%" height="100%" viewBox="0 0 100 100" version="1.1" xmlns="http://www.w3.org/2000/svg" xmlns:xlink="http://www.w3.org/1999/xlink" xml:space="preserve" xmlns:serif="http://www.serif.com/" style="fill-rule:evenodd;clip-rule:evenodd;stroke-linejoin:round;stroke-miterlimit:2;">
    <path d="M73.56,13.32L58.14,13.32C57.012,9.79 53.71,7.379 50.005,7.379C46.3,7.379 42.998,9.79 41.87,13.32L26.44,13.32C20.406,13.32 15.44,18.286 15.44,24.32L15.44,81.63C15.44,87.664 20.406,92.63 26.44,92.63L73.56,92.63C79.594,92.63 84.56,87.664 84.56,81.63L84.56,24.32C84.56,18.286 79.594,13.32 73.56,13.32ZM42.64,15.32C43.118,15.331 43.54,14.997 43.64,14.53C44.292,11.536 46.966,9.383 50.03,9.383C53.094,9.383 55.768,11.536 56.42,14.53C56.52,14.997 56.942,15.331 57.42,15.32L62.8,15.32L62.8,21.87C62.8,23.516 61.446,24.87 59.8,24.87L40.25,24.87C38.604,24.87 37.25,23.516 37.25,21.87L37.25,15.32L42.64,15.32ZM82.56,81.63C82.56,86.567 78.497,90.63 73.56,90.63L26.44,90.63C21.503,90.63 17.44,86.567 17.44,81.63L17.44,24.32C17.44,19.383 21.503,15.32 26.44,15.32L35.25,15.32L35.25,21.87C35.25,24.613 37.507,26.87 40.25,26.87L59.75,26.87C62.493,26.87 64.75,24.613 64.75,21.87L64.75,15.32L73.56,15.32C78.497,15.32 82.56,19.383 82.56,24.32L82.56,81.63Z" style="fill:white;fill-rule:nonzero;"/>
    <path d="M71.6,45.92L54,45.92C53.451,45.92 53,46.371 53,46.92C53,47.469 53.451,47.92 54,47.92L71.6,47.92C72.149,47.92 72.6,47.469 72.6,46.92C72.6,46.371 72.149,45.92 71.6,45.92Z" style="fill:white;fill-rule:nonzero;"/>
    <path d="M71.6,45.92L54,45.92C53.451,45.92 53,46.371 53,46.92C53,47.469 53.451,47.92 54,47.92L71.6,47.92C72.149,47.92 72.6,47.469 72.6,46.92C72.6,46.371 72.149,45.92 71.6,45.92Z" style="fill:white;fill-rule:nonzero;"/>
    <path d="M71.1,69.49L53.45,69.49C52.901,69.49 52.45,69.941 52.45,70.49C52.45,71.039 52.901,71.49 53.45,71.49L71.1,71.49C71.649,71.49 72.1,71.039 72.1,70.49C72.1,69.941 71.649,69.49 71.1,69.49Z" style="fill:white;fill-rule:nonzero;"/>
    <path d="M71.1,69.49L53.45,69.49C52.901,69.49 52.45,69.941 52.45,70.49C52.45,71.039 52.901,71.49 53.45,71.49L71.1,71.49C71.649,71.49 72.1,71.039 72.1,70.49C72.1,69.941 71.649,69.49 71.1,69.49Z" style="fill:white;fill-rule:nonzero;"/>
</svg>
