<?xml version="1.0" encoding="UTF-8" standalone="no"?>
<!DOCTYPE svg PUBLIC "-//W3C//DTD SVG 1.1//EN" "http://www.w3.org/Graphics/SVG/1.1/DTD/svg11.dtd">
<svg width="100%" height="100%" viewBox="0 0 2500 2500" version="1.1" xmlns="http://www.w3.org/2000/svg" xmlns:xlink="http://www.w3.org/1999/xlink" xml:space="preserve" xmlns:serif="http://www.serif.com/" style="fill-rule:evenodd;clip-rule:evenodd;stroke-linejoin:round;stroke-miterlimit:2;">
    <path d="M1620.74,154.668C1582.75,37.725 1457.15,-26.27 1340.23,11.738C1223.28,49.727 1159.29,175.332 1197.3,292.256L1772.95,2063.4C1812.48,2172.65 1930.49,2234.03 2043.77,2201.44C2161.93,2167.42 2233.95,2041.92 2196.25,1925.88L1620.74,154.668" style="fill:white;fill-rule:nonzero;"/>
    <path d="M728.77,444.492C690.762,327.559 565.166,263.564 448.242,301.553C331.289,339.551 267.285,465.146 305.303,582.09L880.967,2353.24C920.488,2462.48 1038.51,2523.88 1151.79,2491.25C1269.94,2457.26 1341.96,2331.76 1304.26,2215.69L728.77,444.492" style="fill:white;fill-rule:nonzero;"/>
    <path d="M2345.33,1621.53C2462.28,1583.55 2526.25,1457.96 2488.26,1341.01C2450.27,1224.08 2324.67,1160.08 2207.74,1198.08L436.602,1773.75C327.354,1813.26 265.967,1931.27 298.564,2044.55C332.578,2162.7 458.076,2234.74 574.121,2197.03L2345.33,1621.54" style="fill:white;fill-rule:nonzero;"/>
    <path d="M805.742,2121.78L1229.05,1984.24L1091.49,1560.88L668.154,1698.48L805.742,2121.79" style="fill:white;fill-rule:nonzero;"/>
    <path d="M1697.73,1831.94C1857.76,1779.96 2006.51,1731.62 2121.05,1694.4L1983.47,1270.97L1560.13,1408.56L1697.73,1831.94" style="fill:white;fill-rule:nonzero;"/>
    <path d="M2055.51,729.551C2172.44,691.563 2236.44,565.967 2198.45,449.014C2160.46,332.09 2034.85,268.096 1917.91,306.084L146.758,881.768C37.52,921.26 -23.877,1039.28 8.75,1152.56C42.744,1270.7 168.242,1342.73 284.307,1305.03L2055.51,729.541" style="fill:white;fill-rule:nonzero;"/>
    <path d="M515.84,1229.81C631.123,1192.35 779.756,1144.05 939.219,1092.26C887.236,932.197 838.896,783.447 801.68,668.896L378.242,806.514L515.84,1229.81" style="fill:white;fill-rule:nonzero;"/>
    <path d="M1407.81,940L1831.21,802.422C1785.35,661.274 1739.49,520.128 1693.62,378.984L1270.21,516.602L1407.81,940" style="fill:white;fill-rule:nonzero;"/>
</svg>
