<?xml version="1.0" encoding="UTF-8" standalone="no"?>
<!DOCTYPE svg PUBLIC "-//W3C//DTD SVG 1.1//EN" "http://www.w3.org/Graphics/SVG/1.1/DTD/svg11.dtd">
<svg width="100%" height="100%" viewBox="0 0 547 493" version="1.1" xmlns="http://www.w3.org/2000/svg" xmlns:xlink="http://www.w3.org/1999/xlink" xml:space="preserve" xmlns:serif="http://www.serif.com/" style="fill-rule:evenodd;clip-rule:evenodd;stroke-linejoin:round;stroke-miterlimit:2;">
    <path d="M479.7,331.4L532.1,331.5L534.5,212.3L482.1,212.3L479.7,331.4ZM3.5,209.1L39,209.1C39.1,209.1 39.2,209.3 39.4,209.4C39.5,209.5 39.7,209.6 39.8,209.8L40.8,210.8L40.8,210.9L38.4,334.5L101.8,334.5L104.3,210.9C104.3,209.9 105.1,209.2 106.1,209.2L141.6,209.2L142.8,151.7L4.9,151.7L3.5,209.1ZM39.3,209.1L39.4,209.1C39.4,209.2 39.4,209.2 39.3,209.1M39.7,209.2C39.7,209.2 39.8,209.2 39.8,209.3C39.7,209.3 39.7,209.3 39.7,209.2M39.9,209.4L40,209.5C40,209.5 40,209.4 39.9,209.4M153.5,334.4L276,334.4L276.9,287.3L218.3,287.3L216.5,285.6L216.9,266.1C216.9,265.2 217.7,264.4 218.7,264.4L270.3,264.4L271.2,220.2L219.6,220.2C219,219.6 218.4,219 217.8,218.5L218.2,200.5C218.2,199.5 219,198.8 220,198.8L278.8,198.8L279.7,151.7L157,151.7L153.5,334.4ZM217,286.8L217.1,286.9C217.1,286.8 217.1,286.8 217,286.8M216.8,286.3C216.8,286.2 216.8,286.2 216.7,286.1C216.7,286.2 216.7,286.3 216.8,286.3M216.9,286.6C216.9,286.5 216.8,286.5 216.8,286.4C216.9,286.5 216.9,286.6 216.9,286.6M218.4,219.6L218.5,219.7C218.4,219.7 218.4,219.6 218.4,219.6M218.1,219.1L218.1,219L218.1,219.1M218.3,219.4C218.3,219.4 218.3,219.3 218.2,219.3C218.2,219.3 218.2,219.4 218.3,219.4M419.5,163.3C402.9,154.9 379,151.7 346.8,151.7L294.4,151.7L290.8,334.5L338.3,334.5C342.8,334.5 347.1,334.5 351.4,334.4C382.3,333.9 406.7,330.7 427.8,316.3C452.4,299.7 466.4,273.5 467,243.3L467,241.5C467,207.4 450.1,178.9 419.5,163.3M355.1,280.4C355.2,280.5 355.2,280.6 355.3,280.7C355.2,280.6 355.1,280.5 355.1,280.4M354.9,280C354.9,280.1 355,280.2 355,280.2C355,280.2 354.9,280.1 354.9,280M402.5,243.3C402.4,249.8 401.4,255.4 399.4,260.2C397.4,265 394.5,269 390.7,272C383,278.2 371.7,280.9 356.6,281.2L354.8,279.5C354.8,279.7 354.8,279.8 354.9,280C354.9,279.8 354.8,279.7 354.8,279.5L356.2,207.4C356.2,206.4 357,205.7 358,205.7L360.9,205.7C371.1,205.7 379.5,207.3 386,210.6C392.6,214 397.3,219.2 399.9,226.1C401.6,230.7 402.5,236.1 402.5,242.1L402.5,243.3M530.6,158.9C526,154.6 519,152 509.4,152L508.5,152C499.1,152.2 492.1,154.9 487.4,159.3C482.7,163.8 480.2,170.1 480,178L480,178.7C480,186.5 482.5,192.9 487.2,197.4C491.9,201.9 499,204.6 508.5,204.6L509.4,204.6C518.7,204.4 525.7,201.6 530.4,197.1C535.1,192.5 537.6,186.1 537.8,178.2L537.8,177.5C537.6,169.4 535.2,163.2 530.6,158.9" style="fill:white;fill-rule:nonzero;"/>
</svg>
