<?xml version="1.0" encoding="UTF-8" standalone="no"?>
<!DOCTYPE svg PUBLIC "-//W3C//DTD SVG 1.1//EN" "http://www.w3.org/Graphics/SVG/1.1/DTD/svg11.dtd">
<svg width="100%" height="100%" viewBox="0 0 2422 2422" version="1.1" xmlns="http://www.w3.org/2000/svg" xmlns:xlink="http://www.w3.org/1999/xlink" xml:space="preserve" xmlns:serif="http://www.serif.com/" style="fill-rule:evenodd;clip-rule:evenodd;stroke-linejoin:round;stroke-miterlimit:2;">
    <path d="M1211.9,0C1873.9,1.3 2405.3,528 2422.3,1178.6C2440.3,1877.4 1871,2438.5 1183.6,2422.6C540.9,2408 29.6,1895.1 1.3,1267.6C-30.2,572.2 526.1,-0.5 1211.9,0Z" style="fill:white;fill-rule:nonzero;"/>
    <path d="M765.7,848.4C773.6,817.7 785,788 799.6,759.7C813.9,732.4 834.3,712 863.9,702.2C885.1,695.3 902.8,683.1 918.7,667C974.8,610.6 1042.9,577.8 1122.1,569C1135.1,567.7 1141.7,562.9 1146.7,550.7C1158.6,521.8 1173.4,494 1193,469.4C1218.9,436.8 1249.9,412.5 1294.7,415.1C1323,416.7 1346.6,428.6 1363.8,451.4C1383.1,476.8 1397.4,505.2 1411.2,533.8C1415.7,543.1 1419.4,546.5 1430.8,544.1C1472.6,534.8 1506.5,553.1 1524.5,592C1545.4,637.5 1555.5,685.7 1560.5,735C1571.1,837.5 1564.2,938.4 1529.5,1036.6C1509.1,1094.3 1480.5,1147.8 1445.6,1198.1C1441.4,1204.2 1440.3,1208.2 1446.1,1214.5C1539.6,1319.4 1585.4,1441.7 1580.1,1582.6L1580.1,1592.7C1586.7,1593 1591.8,1589 1596.8,1586.3C1638.1,1565.1 1675.7,1538.1 1717.3,1517.2C1775.8,1487.8 1837,1467.2 1903.4,1467.7C2001.6,1468.5 2064.7,1564.1 2023.6,1649.3C2007.4,1682.9 1981,1706.8 1944.7,1714.7C1878.5,1729.5 1819.7,1759.5 1763.6,1796.3C1671.2,1857.7 1570,1903.3 1464.1,1938.2C1457,1940.6 1450.3,1943.5 1444.2,1948.3C1415.9,1969.5 1382.8,1978.2 1348.3,1983C1243.7,1997.6 1138.6,2003.9 1033.2,2008.4C989.8,2010.3 946.6,2004.4 908.2,1981.4C897.9,1975 888.9,1963.1 878.3,1961.3C868,1959.7 856.3,1969.2 844.9,1971.9C777.4,1987 714.1,1974.3 655.6,1938.8C620.9,1917.9 604.5,1884.8 606.3,1844C606.8,1833.1 603.7,1825.2 597.3,1816.5C569.2,1777.3 555.5,1732.6 547.8,1685.4C532.7,1592.5 565.8,1515.7 627.2,1448.4C633,1442 635.1,1435.7 635.1,1427.2C635.1,1334.3 652.8,1245.8 700.5,1164.8C727.2,1119.5 761.7,1080.6 800.1,1045.4C807.5,1038.8 808.3,1034.3 803.3,1025.8C787.1,998.8 777.1,969.1 768.3,938.9C760.9,933.6 765.7,925.4 762.7,918.8C762.2,913.8 762.7,908.7 761.1,903.7L761.1,870.6C762.4,865.8 762.4,860.8 762.4,855.8C763.6,853.4 763.1,850.2 765.7,848.4Z" style="fill:rgb(52,126,182);fill-rule:nonzero;"/>
    <path d="M764.9,918.6C767,925.2 764.4,932.6 768.3,939C767.2,939.8 767.2,945.1 765.7,941.4C762.8,934.3 760.7,926.3 760.7,918.6C760.2,893.2 757.8,867.5 764.9,842.3C765.2,844.4 765.4,846.5 766,848.4C765.7,850.8 765.5,853.2 765.2,855.3C762.8,859.8 765.5,865.1 763.1,869.6L763.1,904.3C764.9,908.8 762.6,914.1 764.9,918.6Z" style="fill:white;fill-rule:nonzero;"/>
    <path d="M1509,1596.4C1509,1620.8 1503.4,1644.6 1500.3,1668.4C1497.7,1689.3 1499.8,1691.7 1521,1688C1568.7,1679.8 1611.8,1659.7 1653.4,1636.1C1697.9,1610.7 1740.3,1581.8 1787.9,1562.8C1824.7,1548 1862.3,1538.2 1902.3,1538.2C1937,1538.2 1961.1,1557 1965.3,1586.7C1969.3,1614.2 1954.2,1640.5 1926.6,1646.3C1847.7,1663 1779.6,1701.9 1713.2,1745.1C1624.2,1802.6 1527.3,1844.1 1426.4,1875.9C1422.7,1877 1417.9,1877.8 1415.5,1880.1C1391.7,1905.3 1360.2,1909.5 1328.4,1913.7C1239.2,1925.4 1149.4,1930.6 1059.4,1935.9C1033.5,1937.5 1007.5,1938.3 981.6,1933.3C940.3,1925.1 922.8,1909.7 916.5,1875.8C910.9,1845.3 925.2,1816.5 955.7,1796.6C958.9,1794.5 962.3,1792.4 967.4,1789.2C951,1779.1 937.5,1767.2 927.2,1752.4C922.2,1745.5 919.5,1749.8 917.9,1755.6C912.9,1774.7 907.8,1794 902.8,1813.1C899.4,1825.8 895.1,1838.3 889.8,1850.4C874.4,1885.6 846.4,1902.6 809.3,1906C771.4,1909.4 735.7,1901 701.8,1884.3C678.5,1872.9 671.6,1855.7 679.3,1830.5C683.3,1817 691,1805.3 700.2,1791C668.2,1797.4 654.1,1778.8 643,1756.3C618.1,1707 609.6,1654.9 619.7,1600.9C627.9,1558 653.1,1523.1 683.3,1492.9C701,1475.2 706.3,1458.2 705.8,1433.3C701.8,1289.5 756.1,1171.4 867.9,1080.1C877.7,1071.9 887.5,1063.4 897.8,1056C904.2,1051.5 904.9,1048.6 899.7,1042C870.8,1005.7 848.3,966.3 838,920.5C826.3,868.9 843.8,824.1 869.8,781.2C873.5,775.4 879.3,772.5 885.7,770.1C918.3,758.4 945.8,740.7 970.7,715.8C1026.8,659.7 1096.2,634 1175.6,637.4C1185.7,637.9 1190.2,635 1193.3,625.5C1205.2,590.8 1220,557.4 1239.9,526.5C1247.3,514.8 1255.5,504 1266.1,495.3C1285.7,479.1 1302.4,481.5 1315.6,503C1340,541.9 1358.8,583.8 1377.8,625.6C1382.6,636.2 1386.3,639.9 1397.4,632.7C1410.4,624.5 1424.9,618.7 1439.5,613.6C1451.2,609.6 1458,612.3 1463.1,624.5C1477.9,660.2 1485.9,697.6 1490.4,736C1491.7,746.6 1494.1,756.9 1492.8,767.5C1492,790.5 1493.1,813.6 1493.3,836.9C1493.3,847.2 1489.6,857.6 1492.8,868.1C1490.4,931.1 1473.7,990.7 1449.4,1048.4C1426.6,1102.4 1393.5,1150.3 1360.4,1198.3C1347.4,1216.8 1347.7,1217.1 1364.6,1232.2C1447.2,1306.6 1492.8,1400.1 1508.1,1509.2C1508.6,1513.4 1508.4,1517.9 1508.4,1522.4C1505,1532.5 1508.7,1542.3 1508.9,1552.1C1509.8,1567 1506.4,1581.9 1509,1596.4Z" style="fill:white;fill-rule:nonzero;"/>
    <path d="M1493.1,868.3C1489.9,865.7 1490.7,861.9 1490.7,858.5L1490.7,777.7C1490.7,774.3 1489.9,770.6 1493.1,767.9C1496.6,801.3 1496.8,834.9 1493.1,868.3Z" style="fill:white;fill-rule:nonzero;"/>
    <path d="M1509,1596.4C1503.7,1576 1507.9,1555.4 1506.6,1535C1506.3,1530.8 1505,1526 1509,1522.6C1512.4,1547.2 1511.9,1571.8 1509,1596.4Z" style="fill:white;fill-rule:nonzero;"/>
    <path d="M762.8,869.6C763.1,864.8 760.7,859.5 764.9,855.3C764.9,860 765.2,865.1 762.8,869.6ZM764.9,918.6C760.9,914.4 763,909.1 762.8,904.3C765.5,908.8 764.9,913.8 764.9,918.6Z" style="fill:white;fill-rule:nonzero;"/>
</svg>
